<svg width="926" height="670" viewBox="0 0 926 670" fill="none" xmlns="http://www.w3.org/2000/svg">
<rect y="115" width="593" height="555" fill="black"/>
<path d="M380.094 84H377.832V76.1133H369.23V84H366.98V66.9375H369.23V74.2734H377.832V66.9375H380.094V84ZM384.376 77.543C384.376 76.3008 384.618 75.1836 385.102 74.1914C385.595 73.1992 386.274 72.4336 387.141 71.8945C388.016 71.3555 389.013 71.0859 390.13 71.0859C391.856 71.0859 393.251 71.6836 394.313 72.8789C395.384 74.0742 395.919 75.6641 395.919 77.6484V77.8008C395.919 79.0352 395.68 80.1445 395.204 81.1289C394.735 82.1055 394.059 82.8672 393.177 83.4141C392.302 83.9609 391.294 84.2344 390.153 84.2344C388.434 84.2344 387.04 83.6367 385.97 82.4414C384.907 81.2461 384.376 79.6641 384.376 77.6953V77.543ZM386.555 77.8008C386.555 79.207 386.88 80.3359 387.528 81.1875C388.184 82.0391 389.059 82.4648 390.153 82.4648C391.255 82.4648 392.13 82.0352 392.778 81.1758C393.427 80.3086 393.751 79.0977 393.751 77.543C393.751 76.1523 393.419 75.0273 392.755 74.168C392.098 73.3008 391.223 72.8672 390.13 72.8672C389.059 72.8672 388.196 73.293 387.54 74.1445C386.884 74.9961 386.555 76.2148 386.555 77.8008ZM403.834 81.0586L406.974 71.3203H409.189L404.642 84H402.99L398.396 71.3203H400.611L403.834 81.0586ZM417.573 84.2344C415.854 84.2344 414.455 83.6719 413.377 82.5469C412.299 81.4141 411.76 79.9023 411.76 78.0117V77.6133C411.76 76.3555 411.998 75.2344 412.475 74.25C412.959 73.2578 413.631 72.4844 414.491 71.9297C415.358 71.3672 416.295 71.0859 417.303 71.0859C418.952 71.0859 420.233 71.6289 421.147 72.7148C422.061 73.8008 422.518 75.3555 422.518 77.3789V78.2812H413.928C413.959 79.5312 414.323 80.543 415.018 81.3164C415.721 82.082 416.612 82.4648 417.69 82.4648C418.455 82.4648 419.104 82.3086 419.635 81.9961C420.166 81.6836 420.631 81.2695 421.03 80.7539L422.354 81.7852C421.291 83.418 419.698 84.2344 417.573 84.2344ZM417.303 72.8672C416.428 72.8672 415.694 73.1875 415.1 73.8281C414.506 74.4609 414.139 75.3516 413.998 76.5H420.35V76.3359C420.287 75.2344 419.991 74.3828 419.459 73.7812C418.928 73.1719 418.209 72.8672 417.303 72.8672ZM432.366 73.2656C432.038 73.2109 431.683 73.1836 431.3 73.1836C429.878 73.1836 428.913 73.7891 428.405 75V84H426.237V71.3203H428.347L428.382 72.7852C429.093 71.6523 430.101 71.0859 431.405 71.0859C431.827 71.0859 432.148 71.1406 432.366 71.25V73.2656Z" fill="black"/>
<path d="M44.9922 66.9375V78.5391C44.9844 80.1484 44.4766 81.4648 43.4688 82.4883C42.4688 83.5117 41.1094 84.0859 39.3906 84.2109L38.793 84.2344C36.9258 84.2344 35.4375 83.7305 34.3281 82.7227C33.2188 81.7148 32.6562 80.3281 32.6406 78.5625V66.9375H34.8672V78.4922C34.8672 79.7266 35.207 80.6875 35.8867 81.375C36.5664 82.0547 37.5352 82.3945 38.793 82.3945C40.0664 82.3945 41.0391 82.0547 41.7109 81.375C42.3906 80.6953 42.7305 79.7383 42.7305 78.5039V66.9375H44.9922ZM51.4539 71.3203L51.5242 72.9141C52.493 71.6953 53.7586 71.0859 55.3211 71.0859C58.0008 71.0859 59.3523 72.5977 59.3758 75.6211V84H57.2078V75.6094C57.2 74.6953 56.9891 74.0195 56.575 73.582C56.1688 73.1445 55.532 72.9258 54.6648 72.9258C53.9617 72.9258 53.3445 73.1133 52.8133 73.4883C52.282 73.8633 51.868 74.3555 51.5711 74.9648V84H49.4031V71.3203H51.4539ZM68.0289 81.0586L71.1695 71.3203H73.3844L68.8375 84H67.1852L62.5914 71.3203H64.8062L68.0289 81.0586ZM79.0258 84H76.8578V71.3203H79.0258V84ZM76.682 67.957C76.682 67.6055 76.7875 67.3086 76.9984 67.0664C77.2172 66.8242 77.5375 66.7031 77.9594 66.7031C78.3812 66.7031 78.7016 66.8242 78.9203 67.0664C79.1391 67.3086 79.2484 67.6055 79.2484 67.957C79.2484 68.3086 79.1391 68.6016 78.9203 68.8359C78.7016 69.0703 78.3812 69.1875 77.9594 69.1875C77.5375 69.1875 77.2172 69.0703 76.9984 68.8359C76.7875 68.6016 76.682 68.3086 76.682 67.957ZM91.0891 80.6367C91.0891 80.0508 90.8664 79.5977 90.4211 79.2773C89.9836 78.9492 89.2141 78.668 88.1125 78.4336C87.0187 78.1992 86.1477 77.918 85.4992 77.5898C84.8586 77.2617 84.382 76.8711 84.0695 76.418C83.7648 75.9648 83.6125 75.4258 83.6125 74.8008C83.6125 73.7617 84.05 72.8828 84.925 72.1641C85.8078 71.4453 86.9328 71.0859 88.3 71.0859C89.7375 71.0859 90.9016 71.457 91.7922 72.1992C92.6906 72.9414 93.1398 73.8906 93.1398 75.0469H90.9602C90.9602 74.4531 90.7062 73.9414 90.1984 73.5117C89.6984 73.082 89.0656 72.8672 88.3 72.8672C87.5109 72.8672 86.8937 73.0391 86.4484 73.3828C86.0031 73.7266 85.7805 74.1758 85.7805 74.7305C85.7805 75.2539 85.9875 75.6484 86.4016 75.9141C86.8156 76.1797 87.5617 76.4336 88.6398 76.6758C89.7258 76.918 90.6047 77.207 91.2766 77.543C91.9484 77.8789 92.4445 78.2852 92.7648 78.7617C93.093 79.2305 93.257 79.8047 93.257 80.4844C93.257 81.6172 92.8039 82.5273 91.8977 83.2148C90.9914 83.8945 89.8156 84.2344 88.3703 84.2344C87.3547 84.2344 86.4562 84.0547 85.675 83.6953C84.8937 83.3359 84.2805 82.8359 83.8352 82.1953C83.3977 81.5469 83.1789 80.8477 83.1789 80.0977H85.3469C85.3859 80.8242 85.675 81.4023 86.2141 81.832C86.7609 82.2539 87.4797 82.4648 88.3703 82.4648C89.1906 82.4648 89.8469 82.3008 90.3391 81.9727C90.8391 81.6367 91.0891 81.1914 91.0891 80.6367ZM99.6367 84H97.4688V71.3203H99.6367V84ZM97.293 67.957C97.293 67.6055 97.3984 67.3086 97.6094 67.0664C97.8281 66.8242 98.1484 66.7031 98.5703 66.7031C98.9922 66.7031 99.3125 66.8242 99.5312 67.0664C99.75 67.3086 99.8594 67.6055 99.8594 67.957C99.8594 68.3086 99.75 68.6016 99.5312 68.8359C99.3125 69.0703 98.9922 69.1875 98.5703 69.1875C98.1484 69.1875 97.8281 69.0703 97.6094 68.8359C97.3984 68.6016 97.293 68.3086 97.293 67.957ZM107.259 68.25V71.3203H109.626V72.9961H107.259V80.8594C107.259 81.3672 107.364 81.75 107.575 82.0078C107.786 82.2578 108.145 82.3828 108.653 82.3828C108.903 82.3828 109.247 82.3359 109.684 82.2422V84C109.114 84.1562 108.559 84.2344 108.02 84.2344C107.052 84.2344 106.321 83.9414 105.829 83.3555C105.337 82.7695 105.091 81.9375 105.091 80.8594V72.9961H102.782V71.3203H105.091V68.25H107.259ZM118.63 84.2344C116.912 84.2344 115.513 83.6719 114.435 82.5469C113.357 81.4141 112.818 79.9023 112.818 78.0117V77.6133C112.818 76.3555 113.056 75.2344 113.533 74.25C114.017 73.2578 114.689 72.4844 115.548 71.9297C116.416 71.3672 117.353 71.0859 118.361 71.0859C120.009 71.0859 121.291 71.6289 122.205 72.7148C123.119 73.8008 123.576 75.3555 123.576 77.3789V78.2812H114.986C115.017 79.5312 115.38 80.543 116.076 81.3164C116.779 82.082 117.67 82.4648 118.748 82.4648C119.513 82.4648 120.162 82.3086 120.693 81.9961C121.224 81.6836 121.689 81.2695 122.088 80.7539L123.412 81.7852C122.349 83.418 120.755 84.2344 118.63 84.2344ZM118.361 72.8672C117.486 72.8672 116.752 73.1875 116.158 73.8281C115.564 74.4609 115.197 75.3516 115.056 76.5H121.408V76.3359C121.345 75.2344 121.048 74.3828 120.517 73.7812C119.986 73.1719 119.267 72.8672 118.361 72.8672ZM126.768 77.5547C126.768 75.6094 127.229 74.0469 128.151 72.8672C129.073 71.6797 130.28 71.0859 131.772 71.0859C133.256 71.0859 134.432 71.5938 135.299 72.6094V66H137.467V84H135.475L135.37 82.6406C134.502 83.7031 133.295 84.2344 131.748 84.2344C130.28 84.2344 129.08 83.6328 128.151 82.4297C127.229 81.2266 126.768 79.6562 126.768 77.7188V77.5547ZM128.936 77.8008C128.936 79.2383 129.233 80.3633 129.827 81.1758C130.42 81.9883 131.241 82.3945 132.287 82.3945C133.662 82.3945 134.666 81.7773 135.299 80.543V74.7188C134.651 73.5234 133.655 72.9258 132.311 72.9258C131.248 72.9258 130.42 73.3359 129.827 74.1562C129.233 74.9766 128.936 76.1914 128.936 77.8008Z" fill="black"/>
<line x1="2" y1="43.5" x2="926" y2="43.5" stroke="black"/>
<path d="M6.39453 22H4.14453V4.9375H6.39453V22ZM16.4656 20.4648C17.2391 20.4648 17.9148 20.2305 18.493 19.7617C19.0711 19.293 19.3914 18.707 19.4539 18.0039H21.5047C21.4656 18.7305 21.2156 19.4219 20.7547 20.0781C20.2937 20.7344 19.6766 21.2578 18.9031 21.6484C18.1375 22.0391 17.325 22.2344 16.4656 22.2344C14.7391 22.2344 13.3641 21.6602 12.3406 20.5117C11.325 19.3555 10.8172 17.7773 10.8172 15.7773V15.4141C10.8172 14.1797 11.0437 13.082 11.4969 12.1211C11.95 11.1602 12.5984 10.4141 13.4422 9.88281C14.2937 9.35156 15.2977 9.08594 16.4539 9.08594C17.8758 9.08594 19.0555 9.51172 19.993 10.3633C20.9383 11.2148 21.4422 12.3203 21.5047 13.6797H19.4539C19.3914 12.8594 19.0789 12.1875 18.5164 11.6641C17.9617 11.1328 17.2742 10.8672 16.4539 10.8672C15.3523 10.8672 14.4969 11.2656 13.8875 12.0625C13.2859 12.8516 12.9852 13.9961 12.9852 15.4961V15.9062C12.9852 17.3672 13.2859 18.4922 13.8875 19.2812C14.4891 20.0703 15.3484 20.4648 16.4656 20.4648ZM24.568 15.543C24.568 14.3008 24.8102 13.1836 25.2945 12.1914C25.7867 11.1992 26.4664 10.4336 27.3336 9.89453C28.2086 9.35547 29.2047 9.08594 30.3219 9.08594C32.0484 9.08594 33.443 9.68359 34.5055 10.8789C35.5758 12.0742 36.1109 13.6641 36.1109 15.6484V15.8008C36.1109 17.0352 35.8727 18.1445 35.3961 19.1289C34.9273 20.1055 34.2516 20.8672 33.3687 21.4141C32.4937 21.9609 31.4859 22.2344 30.3453 22.2344C28.6266 22.2344 27.232 21.6367 26.1617 20.4414C25.0992 19.2461 24.568 17.6641 24.568 15.6953V15.543ZM26.7477 15.8008C26.7477 17.207 27.0719 18.3359 27.7203 19.1875C28.3766 20.0391 29.2516 20.4648 30.3453 20.4648C31.4469 20.4648 32.3219 20.0352 32.9703 19.1758C33.6187 18.3086 33.943 17.0977 33.943 15.543C33.943 14.1523 33.6109 13.0273 32.9469 12.168C32.2906 11.3008 31.4156 10.8672 30.3219 10.8672C29.2516 10.8672 28.3883 11.293 27.732 12.1445C27.0758 12.9961 26.7477 14.2148 26.7477 15.8008ZM42.0805 9.32031L42.1508 10.9141C43.1195 9.69531 44.3852 9.08594 45.9477 9.08594C48.6273 9.08594 49.9789 10.5977 50.0023 13.6211V22H47.8344V13.6094C47.8266 12.6953 47.6156 12.0195 47.2016 11.582C46.7953 11.1445 46.1586 10.9258 45.2914 10.9258C44.5883 10.9258 43.9711 11.1133 43.4398 11.4883C42.9086 11.8633 42.4945 12.3555 42.1977 12.9648V22H40.0297V9.32031H42.0805ZM61.8547 18.6367C61.8547 18.0508 61.632 17.5977 61.1867 17.2773C60.7492 16.9492 59.9797 16.668 58.8781 16.4336C57.7844 16.1992 56.9133 15.918 56.2648 15.5898C55.6242 15.2617 55.1477 14.8711 54.8352 14.418C54.5305 13.9648 54.3781 13.4258 54.3781 12.8008C54.3781 11.7617 54.8156 10.8828 55.6906 10.1641C56.5734 9.44531 57.6984 9.08594 59.0656 9.08594C60.5031 9.08594 61.6672 9.45703 62.5578 10.1992C63.4562 10.9414 63.9055 11.8906 63.9055 13.0469H61.7258C61.7258 12.4531 61.4719 11.9414 60.9641 11.5117C60.4641 11.082 59.8312 10.8672 59.0656 10.8672C58.2766 10.8672 57.6594 11.0391 57.2141 11.3828C56.7687 11.7266 56.5461 12.1758 56.5461 12.7305C56.5461 13.2539 56.7531 13.6484 57.1672 13.9141C57.5812 14.1797 58.3273 14.4336 59.4055 14.6758C60.4914 14.918 61.3703 15.207 62.0422 15.543C62.7141 15.8789 63.2102 16.2852 63.5305 16.7617C63.8586 17.2305 64.0227 17.8047 64.0227 18.4844C64.0227 19.6172 63.5695 20.5273 62.6633 21.2148C61.757 21.8945 60.5812 22.2344 59.1359 22.2344C58.1203 22.2344 57.2219 22.0547 56.4406 21.6953C55.6594 21.3359 55.0461 20.8359 54.6008 20.1953C54.1633 19.5469 53.9445 18.8477 53.9445 18.0977H56.1125C56.1516 18.8242 56.4406 19.4023 56.9797 19.832C57.5266 20.2539 58.2453 20.4648 59.1359 20.4648C59.9562 20.4648 60.6125 20.3008 61.1047 19.9727C61.6047 19.6367 61.8547 19.1914 61.8547 18.6367Z" fill="black"/>
<path d="M80.4506 164.259C79.0919 164.697 77.9456 165.477 77.6601 166.156L77.5398 166.442L75.6561 166.433L75.4116 165.93C75.2253 165.547 75.063 165.371 74.7263 165.187L74.2864 164.946H71.1062C66.935 164.946 66.4089 165.153 66.4089 166.804V167.268L65.6996 167.615C63.0844 168.892 61.0354 171.416 60.2258 174.355L60.0003 175.175V185.258C60.0003 196.27 59.9673 195.558 60.5474 197.117C61.848 200.609 64.8629 203.135 68.5492 203.826C69.7886 204.058 100.211 204.058 101.451 203.826C105.137 203.136 108.152 200.61 109.453 197.117C110.033 195.558 110 196.27 110 185.258V175.175L109.783 174.403C108.649 170.365 105.743 167.612 101.634 166.679C101.02 166.54 100.213 166.505 96.6765 166.469L92.4532 166.424L92.3369 166.147C92.0504 165.466 90.8209 164.646 89.4663 164.233C88.3992 163.908 81.4756 163.928 80.4506 164.259ZM100.06 169.822C103.053 170.126 105.386 171.953 106.398 174.787L106.673 175.559L106.701 184.871C106.733 195.519 106.765 195.022 105.924 196.734C104.976 198.662 103.064 200.12 100.929 200.545C99.7856 200.773 70.2114 200.773 69.0712 200.545C66.9159 200.115 65.0112 198.628 64.0092 196.595C63.2447 195.043 63.2668 195.407 63.2988 184.871L63.3269 175.559L63.6315 174.716C64.6084 172.017 66.9961 170.117 69.7736 169.829C70.9589 169.707 98.8517 169.7 100.06 169.821V169.822ZM69.5171 170.888C66.3789 171.342 64.3539 173.894 64.3539 177.398V178.695H71.0661L71.2915 178.237C72.2845 176.212 74.2844 174.017 76.4357 172.587C77.2402 172.052 79.3614 170.976 79.6109 170.976C79.669 170.976 79.7161 170.933 79.7161 170.879C79.7161 170.761 70.3457 170.768 69.5171 170.887V170.888ZM90.2839 170.855C90.2839 170.9 90.4492 170.995 90.6506 171.065C93.7206 172.129 97.462 175.47 98.7385 178.286L98.9249 178.696H105.647V177.399C105.647 174.128 104.134 171.984 101.146 171.017C100.558 170.826 90.2849 170.674 90.2849 170.856L90.2839 170.855ZM84.0707 171.518C72.6663 172.616 67.1324 184.975 74.0931 193.798C81.7892 203.551 97.8768 198.702 98.8858 186.324C99.5611 178.034 92.2528 170.731 84.0707 171.518ZM86.6638 174.946C93.2327 175.875 97.3277 182.963 94.8278 189.077C91.9482 196.122 82.708 197.928 77.4136 192.48C70.3908 185.254 76.5819 173.519 86.6638 174.946ZM83.8723 176.572C77.9617 177.395 74.553 183.347 76.8885 188.77C79.5698 194.994 88.5605 195.766 92.376 190.1C96.5512 183.901 91.2949 175.539 83.8723 176.572ZM87.7168 177.91C88.8581 178.26 89.7118 179.077 89.7318 179.837C89.7779 181.589 86.2289 181.533 85.0416 179.764C84.1388 178.419 85.747 177.305 87.7168 177.91ZM82.701 191.255C83.7821 191.48 85.3923 192.456 85.3923 192.885C85.3923 193.887 81.7581 193.239 80.697 192.049C79.9636 191.225 80.8564 190.871 82.701 191.255ZM101.913 194.999C99.8938 195.617 100.285 198.386 102.39 198.379C104.531 198.372 104.69 195.263 102.564 194.973C102.349 194.944 102.056 194.956 101.913 195V194.999Z" fill="white"/>
<path d="M385.451 164.259C384.092 164.697 382.946 165.477 382.66 166.156L382.54 166.442L380.656 166.433L380.412 165.93C380.225 165.547 380.063 165.371 379.726 165.187L379.286 164.946H376.106C371.935 164.946 371.409 165.153 371.409 166.804V167.268L370.7 167.615C368.084 168.892 366.035 171.416 365.226 174.355L365 175.175V185.258C365 196.27 364.967 195.558 365.547 197.117C366.848 200.609 369.863 203.135 373.549 203.826C374.789 204.058 405.211 204.058 406.451 203.826C410.137 203.136 413.152 200.61 414.453 197.117C415.033 195.558 415 196.27 415 185.258V175.175L414.783 174.403C413.649 170.365 410.743 167.612 406.634 166.679C406.02 166.54 405.213 166.505 401.676 166.469L397.453 166.424L397.337 166.147C397.05 165.466 395.821 164.646 394.466 164.233C393.399 163.908 386.476 163.928 385.451 164.259V164.259ZM405.06 169.822C408.053 170.126 410.386 171.953 411.398 174.787L411.673 175.559L411.701 184.871C411.733 195.519 411.765 195.022 410.924 196.734C409.976 198.662 408.064 200.12 405.929 200.545C404.786 200.773 375.211 200.773 374.071 200.545C371.916 200.115 370.011 198.628 369.009 196.595C368.245 195.043 368.267 195.407 368.299 184.871L368.327 175.559L368.631 174.716C369.608 172.017 371.996 170.117 374.774 169.829C375.959 169.707 403.852 169.7 405.06 169.821V169.822ZM374.517 170.888C371.379 171.342 369.354 173.894 369.354 177.398V178.695H376.066L376.292 178.237C377.284 176.212 379.284 174.017 381.436 172.587C382.24 172.052 384.361 170.976 384.611 170.976C384.669 170.976 384.716 170.933 384.716 170.879C384.716 170.761 375.346 170.768 374.517 170.887V170.888ZM395.284 170.855C395.284 170.9 395.449 170.995 395.651 171.065C398.721 172.129 402.462 175.47 403.739 178.286L403.925 178.696H410.647V177.399C410.647 174.128 409.134 171.984 406.146 171.017C405.558 170.826 395.285 170.674 395.285 170.856L395.284 170.855ZM389.071 171.518C377.666 172.616 372.132 184.975 379.093 193.798C386.789 203.551 402.877 198.702 403.886 186.324C404.561 178.034 397.253 170.731 389.071 171.518V171.518ZM391.664 174.946C398.233 175.875 402.328 182.963 399.828 189.077C396.948 196.122 387.708 197.928 382.414 192.48C375.391 185.254 381.582 173.519 391.664 174.946V174.946ZM388.872 176.572C382.962 177.395 379.553 183.347 381.889 188.77C384.57 194.994 393.561 195.766 397.376 190.1C401.551 183.901 396.295 175.539 388.872 176.572V176.572ZM392.717 177.91C393.858 178.26 394.712 179.077 394.732 179.837C394.778 181.589 391.229 181.533 390.042 179.764C389.139 178.419 390.747 177.305 392.717 177.91V177.91ZM387.701 191.255C388.782 191.48 390.392 192.456 390.392 192.885C390.392 193.887 386.758 193.239 385.697 192.049C384.964 191.225 385.856 190.871 387.701 191.255V191.255ZM406.913 194.999C404.894 195.617 405.285 198.386 407.39 198.379C409.531 198.372 409.69 195.263 407.564 194.973C407.349 194.944 407.056 194.956 406.913 195V194.999Z" fill="#BDAE82"/>
<path d="M382.36 625.667C384.76 625.667 385.267 625.694 386.493 625.747C387.906 625.814 388.88 626.04 389.72 626.374C390.6 626.707 391.347 627.174 392.08 627.907C392.827 628.64 393.28 629.387 393.627 630.267C393.96 631.107 394.174 632.08 394.24 633.507C394.307 634.774 394.32 635.267 394.32 637.934V640.067C394.32 642.734 394.307 643.227 394.24 644.494C394.217 645.659 393.994 646.764 393.604 647.788L393.626 647.721C393.279 648.601 392.826 649.348 392.093 650.081C391.346 650.828 390.6 651.281 389.72 651.628C388.88 651.961 387.907 652.175 386.493 652.241C385.226 652.308 384.72 652.321 382.053 652.321H379.933C377.266 652.321 376.773 652.308 375.493 652.241C374.328 652.218 373.223 651.995 372.199 651.605L372.266 651.627C371.343 651.274 370.556 650.753 369.907 650.094L369.906 650.093C369.24 649.441 368.714 648.649 368.374 647.764L368.359 647.719C367.992 646.763 367.769 645.657 367.746 644.502V644.492C367.693 643.45 367.663 642.229 367.663 641.002C367.663 640.776 367.664 640.55 367.666 640.325V640.359V637.626C367.666 635.226 367.693 634.719 367.746 633.493C367.813 632.08 368.039 631.106 368.359 630.266C368.706 629.386 369.159 628.639 369.906 627.906C370.551 627.239 371.34 626.716 372.223 626.387L372.266 626.373C373.221 626.002 374.326 625.774 375.481 625.747H375.493C376.72 625.694 377.226 625.667 379.626 625.667H382.36ZM382.387 628.067H379.6C377.293 628.067 376.8 628.094 375.6 628.147C374.307 628.2 373.6 628.414 373.133 628.6C372.506 628.84 372.066 629.133 371.6 629.6C371.134 630.067 370.84 630.507 370.6 631.133C370.427 631.6 370.2 632.306 370.147 633.613C370.094 634.813 370.067 635.293 370.067 637.613V640.386C370.067 642.706 370.094 643.186 370.147 644.386C370.2 645.679 370.414 646.386 370.6 646.853C370.84 647.48 371.133 647.92 371.6 648.386C372.067 648.852 372.507 649.146 373.133 649.386C373.6 649.573 374.306 649.786 375.613 649.839C376.906 649.906 377.373 649.919 380.253 649.919H381.733C384.626 649.919 385.08 649.906 386.386 649.839C387.679 649.786 388.386 649.572 388.853 649.386C389.48 649.146 389.92 648.853 390.386 648.386C390.852 647.919 391.146 647.479 391.386 646.853C391.573 646.386 391.786 645.68 391.839 644.386C391.906 643.079 391.919 642.626 391.919 639.733V638.266C391.919 635.373 391.906 634.906 391.839 633.599C391.786 632.306 391.572 631.599 391.386 631.132C391.16 630.531 390.819 630.018 390.387 629.6L390.386 629.599C389.966 629.166 389.454 628.825 388.881 628.608L388.853 628.599C388.121 628.323 387.275 628.158 386.391 628.146H386.386C385.358 628.094 384.155 628.064 382.944 628.064C382.748 628.064 382.552 628.065 382.356 628.066H382.386L382.387 628.067ZM381 632.147C384.781 632.147 387.847 635.212 387.847 638.994C387.847 642.776 384.782 645.841 381 645.841C377.219 645.841 374.153 642.776 374.153 638.994C374.153 635.212 377.218 632.147 381 632.147ZM381 634.547C378.544 634.547 376.553 636.538 376.553 638.994C376.553 641.45 378.544 643.441 381 643.441C383.456 643.441 385.447 641.45 385.447 638.994C385.447 636.538 383.456 634.547 381 634.547ZM388.107 630.28C388.991 630.28 389.707 630.996 389.707 631.88C389.707 632.764 388.991 633.48 388.107 633.48C387.223 633.48 386.507 632.764 386.507 631.88C386.507 630.996 387.223 630.28 388.107 630.28Z" fill="#CCBA8D"/>
<path d="M430.04 652.333L430 640.666H425V635.666H430V632.333C430 627.84 432.787 625.666 436.8 625.666C438.72 625.666 440.373 625.799 440.853 625.866V630.573H438.066C435.893 630.573 435.466 631.613 435.466 633.133V635.666H441.666L439.999 640.666H435.466V652.333H430.039H430.04Z" fill="#CCBA8D"/>
<path d="M498.333 630.84C497.333 631.333 496.333 631.507 495.16 631.667C496.333 631 497.16 630 497.493 628.667C496.488 629.275 495.317 629.738 494.07 629.989L494 630.001C492.969 628.987 491.56 628.355 490.004 628.334H490C487.16 628.334 484.667 630.841 484.667 633.841C484.667 634.334 484.667 634.668 484.84 635.001C480.262 634.823 476.221 632.664 473.529 629.362L473.507 629.334C473.082 630.06 472.831 630.932 472.831 631.863C472.831 631.972 472.834 632.081 472.841 632.189L472.84 632.174C472.874 634.052 473.849 635.695 475.313 636.655L475.334 636.668C474.494 636.668 473.667 636.335 472.827 636.001C472.827 638.668 474.667 640.841 477.16 641.334C476.667 641.507 476.16 641.507 475.667 641.507C475.334 641.507 475 641.507 474.667 641.334C475.334 643.507 477.334 645.174 479.84 645.174C478.04 646.629 475.724 647.509 473.203 647.509C473.132 647.509 473.061 647.508 472.99 647.507H473.001H471.668C474.033 649.016 476.904 649.936 479.984 650H480.001C490.001 650 495.508 641.667 495.508 634.493V633.826C496.655 633.036 497.601 632.039 498.311 630.882L498.335 630.84H498.333Z" fill="#CCBA8D"/>
<path d="M537 625.667C529.657 625.694 523.714 631.653 523.714 639C523.714 644.599 527.166 649.393 532.057 651.368L532.146 651.4C532.013 650.347 531.919 648.733 532.186 647.573L533.746 640.946C533.746 640.946 533.346 640.146 533.346 638.973C533.346 637.12 534.426 635.746 535.773 635.746C536.906 635.746 537.466 636.599 537.466 637.613C537.466 638.76 536.733 640.466 536.346 642.053C536.026 643.386 537.013 644.466 538.333 644.466C540.706 644.466 542.52 641.973 542.52 638.373C542.52 635.173 540.227 632.96 536.947 632.96C536.871 632.956 536.783 632.954 536.694 632.954C533.505 632.954 530.921 635.539 530.921 638.727C530.921 638.729 530.921 638.731 530.921 638.733C530.921 639.88 531.361 641.106 531.908 641.773C532.015 641.906 532.028 642.026 531.988 642.16L531.615 643.667C531.562 643.907 531.415 643.974 531.175 643.854C529.495 643.067 528.455 640.654 528.455 638.681C528.455 634.481 531.522 630.628 537.282 630.628C541.895 630.628 545.509 633.908 545.509 638.321C545.509 642.921 542.602 646.614 538.576 646.614C537.243 646.614 535.963 645.907 535.536 645.081L534.696 648.241C534.265 649.578 533.704 650.739 533.008 651.804L533.042 651.748C534.212 652.12 535.558 652.335 536.953 652.335C544.317 652.335 550.286 646.365 550.286 639.002C550.286 631.655 544.344 625.696 537.004 625.669H537.001L537 625.667Z" fill="#CCBA8D"/>
<path d="M77.36 625.667C79.76 625.667 80.267 625.694 81.493 625.747C82.906 625.814 83.88 626.04 84.72 626.374C85.6 626.707 86.347 627.174 87.08 627.907C87.827 628.64 88.28 629.387 88.627 630.267C88.96 631.107 89.174 632.08 89.24 633.507C89.307 634.774 89.32 635.267 89.32 637.934V640.067C89.32 642.734 89.307 643.227 89.24 644.494C89.217 645.659 88.994 646.764 88.604 647.788L88.626 647.721C88.279 648.601 87.826 649.348 87.093 650.081C86.346 650.828 85.6 651.281 84.72 651.628C83.88 651.961 82.907 652.175 81.493 652.241C80.226 652.308 79.72 652.321 77.053 652.321H74.933C72.266 652.321 71.773 652.308 70.493 652.241C69.328 652.218 68.223 651.995 67.199 651.605L67.266 651.627C66.343 651.274 65.556 650.753 64.907 650.094L64.906 650.093C64.24 649.441 63.714 648.649 63.374 647.764L63.359 647.719C62.992 646.763 62.769 645.657 62.746 644.502V644.492C62.693 643.45 62.663 642.229 62.663 641.002C62.663 640.776 62.664 640.55 62.666 640.325V640.359V637.626C62.666 635.226 62.693 634.719 62.746 633.493C62.813 632.08 63.039 631.106 63.359 630.266C63.706 629.386 64.159 628.639 64.906 627.906C65.551 627.239 66.34 626.716 67.223 626.387L67.266 626.373C68.221 626.002 69.326 625.774 70.481 625.747H70.493C71.72 625.694 72.226 625.667 74.626 625.667H77.36ZM77.387 628.067H74.6C72.293 628.067 71.8 628.094 70.6 628.147C69.307 628.2 68.6 628.414 68.133 628.6C67.506 628.84 67.066 629.133 66.6 629.6C66.134 630.067 65.84 630.507 65.6 631.133C65.427 631.6 65.2 632.306 65.147 633.613C65.094 634.813 65.067 635.293 65.067 637.613V640.386C65.067 642.706 65.094 643.186 65.147 644.386C65.2 645.679 65.414 646.386 65.6 646.853C65.84 647.48 66.133 647.92 66.6 648.386C67.067 648.852 67.507 649.146 68.133 649.386C68.6 649.573 69.306 649.786 70.613 649.839C71.906 649.906 72.373 649.919 75.253 649.919H76.733C79.626 649.919 80.08 649.906 81.386 649.839C82.679 649.786 83.386 649.572 83.853 649.386C84.48 649.146 84.92 648.853 85.386 648.386C85.852 647.919 86.146 647.479 86.386 646.853C86.573 646.386 86.786 645.68 86.839 644.386C86.906 643.079 86.919 642.626 86.919 639.733V638.266C86.919 635.373 86.906 634.906 86.839 633.599C86.786 632.306 86.572 631.599 86.386 631.132C86.16 630.531 85.819 630.018 85.387 629.6L85.386 629.599C84.966 629.166 84.454 628.825 83.881 628.608L83.853 628.599C83.121 628.323 82.275 628.158 81.391 628.146H81.386C80.358 628.094 79.155 628.064 77.944 628.064C77.748 628.064 77.552 628.065 77.356 628.066H77.386L77.387 628.067ZM76 632.147C79.781 632.147 82.847 635.212 82.847 638.994C82.847 642.776 79.782 645.841 76 645.841C72.219 645.841 69.153 642.776 69.153 638.994C69.153 635.212 72.218 632.147 76 632.147ZM76 634.547C73.544 634.547 71.553 636.538 71.553 638.994C71.553 641.45 73.544 643.441 76 643.441C78.456 643.441 80.447 641.45 80.447 638.994C80.447 636.538 78.456 634.547 76 634.547ZM83.107 630.28C83.991 630.28 84.707 630.996 84.707 631.88C84.707 632.764 83.991 633.48 83.107 633.48C82.223 633.48 81.507 632.764 81.507 631.88C81.507 630.996 82.223 630.28 83.107 630.28Z" fill="white"/>
<path d="M125.04 652.333L125 640.666H120V635.666H125V632.333C125 627.84 127.787 625.666 131.8 625.666C133.72 625.666 135.373 625.799 135.853 625.866V630.573H133.066C130.893 630.573 130.466 631.613 130.466 633.133V635.666H136.666L134.999 640.666H130.466V652.333H125.039H125.04Z" fill="white"/>
<path d="M193.333 630.84C192.333 631.333 191.333 631.507 190.16 631.667C191.333 631 192.16 630 192.493 628.667C191.488 629.275 190.317 629.738 189.07 629.989L189 630.001C187.969 628.987 186.56 628.355 185.004 628.334H185C182.16 628.334 179.667 630.841 179.667 633.841C179.667 634.334 179.667 634.668 179.84 635.001C175.262 634.823 171.221 632.664 168.529 629.362L168.507 629.334C168.082 630.06 167.831 630.932 167.831 631.863C167.831 631.972 167.834 632.081 167.841 632.189L167.84 632.174C167.874 634.052 168.849 635.695 170.313 636.655L170.334 636.668C169.494 636.668 168.667 636.335 167.827 636.001C167.827 638.668 169.667 640.841 172.16 641.334C171.667 641.507 171.16 641.507 170.667 641.507C170.334 641.507 170 641.507 169.667 641.334C170.334 643.507 172.334 645.174 174.84 645.174C173.04 646.629 170.724 647.509 168.203 647.509C168.132 647.509 168.061 647.508 167.99 647.507H168.001H166.668C169.033 649.016 171.904 649.936 174.984 650H175.001C185.001 650 190.508 641.667 190.508 634.493V633.826C191.655 633.036 192.601 632.039 193.311 630.882L193.335 630.84H193.333Z" fill="white"/>
<path d="M232 625.667C224.657 625.694 218.714 631.653 218.714 639C218.714 644.599 222.166 649.393 227.057 651.368L227.146 651.4C227.013 650.347 226.919 648.733 227.186 647.573L228.746 640.946C228.746 640.946 228.346 640.146 228.346 638.973C228.346 637.12 229.426 635.746 230.773 635.746C231.906 635.746 232.466 636.599 232.466 637.613C232.466 638.76 231.733 640.466 231.346 642.053C231.026 643.386 232.013 644.466 233.333 644.466C235.706 644.466 237.52 641.973 237.52 638.373C237.52 635.173 235.227 632.96 231.947 632.96C231.871 632.956 231.783 632.954 231.694 632.954C228.505 632.954 225.921 635.539 225.921 638.727C225.921 638.729 225.921 638.731 225.921 638.733C225.921 639.88 226.361 641.106 226.908 641.773C227.015 641.906 227.028 642.026 226.988 642.16L226.615 643.667C226.562 643.907 226.415 643.974 226.175 643.854C224.495 643.067 223.455 640.654 223.455 638.681C223.455 634.481 226.522 630.628 232.282 630.628C236.895 630.628 240.509 633.908 240.509 638.321C240.509 642.921 237.602 646.614 233.576 646.614C232.243 646.614 230.963 645.907 230.536 645.081L229.696 648.241C229.265 649.578 228.704 650.739 228.008 651.804L228.042 651.748C229.212 652.12 230.558 652.335 231.953 652.335C239.317 652.335 245.286 646.365 245.286 639.002C245.286 631.655 239.344 625.696 232.004 625.669H232.001L232 625.667Z" fill="white"/>
<path d="M118.521 435.136C118.022 435.256 115.57 435.686 113.073 436.091C66.1741 443.698 43.9917 500.904 73.0263 539.367C82.0681 551.344 102.832 564.906 103.861 559.506C103.989 558.832 102.753 557.978 99.6854 556.624C87.0991 551.065 75.7097 540.112 69.4955 527.594C46.9256 482.128 85.5402 430.677 135.965 439.029C143.54 440.284 144.856 437.668 137.432 436.111C134.053 435.403 120.344 434.696 118.521 435.136V435.136ZM118.824 448.543C109.956 449.849 98.5455 454.39 98.5455 456.611C98.5455 458.335 99.8261 458.202 104.506 455.99C130.142 443.878 161.354 457.131 170.64 484.072C186.075 528.852 135.119 566.76 96.427 539.279C74.9264 524.009 69.9684 493.679 85.4031 471.84C89.4989 466.044 87.3436 463.594 83.1612 469.291C57.3922 504.397 84.2964 553.982 127.771 551.507C171.658 549.008 192.641 496.421 162.441 464.619C151.369 452.961 133.509 446.378 118.824 448.542L118.824 448.543ZM171.588 456.449C170.688 457.349 171.376 458.96 174.257 462.704C195.62 490.458 188.626 531.943 159.294 551.46C146.077 560.255 134.472 562.692 112.771 561.233C110.727 561.096 110.349 561.252 110.349 562.237C110.349 566.711 136.324 565.498 149.203 560.422C186.968 545.539 201.858 497.495 179.094 463.974C174.774 457.614 172.602 455.435 171.588 456.449L171.588 456.449ZM107.265 479.111C106.191 480.296 106.099 481.687 105.935 499.203C105.665 528 102.798 527.129 137.569 508.811C154.515 499.883 154.609 500.163 130.306 487.414C111.304 477.447 109.395 476.758 107.265 479.111ZM128.264 490.005C146.726 499.648 146.822 499.708 145.531 500.78C144.083 501.982 111.161 519 110.285 519C109.581 519 109.441 515.835 109.441 499.932C109.441 486.557 109.639 480.864 110.102 480.864C110.465 480.864 118.638 484.978 128.264 490.005H128.264Z" fill="white"/>
<path d="M425.521 435.136C425.022 435.256 422.57 435.686 420.073 436.091C373.174 443.698 350.992 500.904 380.026 539.367C389.068 551.344 409.832 564.906 410.861 559.506C410.989 558.832 409.753 557.978 406.685 556.624C394.099 551.065 382.71 540.112 376.495 527.594C353.926 482.128 392.54 430.677 442.965 439.029C450.54 440.284 451.856 437.668 444.432 436.111C441.053 435.403 427.344 434.696 425.521 435.136V435.136ZM425.824 448.543C416.956 449.849 405.545 454.39 405.545 456.611C405.545 458.335 406.826 458.202 411.506 455.99C437.142 443.878 468.354 457.131 477.64 484.072C493.075 528.852 442.119 566.76 403.427 539.279C381.926 524.009 376.968 493.679 392.403 471.84C396.499 466.044 394.344 463.594 390.161 469.291C364.392 504.397 391.296 553.982 434.771 551.507C478.658 549.008 499.641 496.421 469.441 464.619C458.369 452.961 440.509 446.378 425.824 448.542L425.824 448.543ZM478.588 456.449C477.688 457.349 478.376 458.96 481.257 462.704C502.62 490.458 495.626 531.943 466.294 551.46C453.077 560.255 441.472 562.692 419.771 561.233C417.727 561.096 417.349 561.252 417.349 562.237C417.349 566.711 443.324 565.498 456.203 560.422C493.968 545.539 508.858 497.495 486.094 463.974C481.774 457.614 479.602 455.435 478.588 456.449L478.588 456.449ZM414.265 479.111C413.191 480.296 413.099 481.687 412.935 499.203C412.665 528 409.798 527.129 444.569 508.811C461.515 499.883 461.609 500.163 437.306 487.414C418.304 477.447 416.395 476.758 414.265 479.111ZM435.264 490.005C453.726 499.648 453.822 499.708 452.531 500.78C451.083 501.982 418.161 519 417.285 519C416.581 519 416.441 515.835 416.441 499.932C416.441 486.557 416.639 480.864 417.102 480.864C417.465 480.864 425.638 484.978 435.264 490.005H435.264Z" fill="#BDAE82"/>
<path d="M60 250H110V253.111H60V250Z" fill="white"/>
<path d="M60 262.444H110V265.556H60V262.444Z" fill="white"/>
<path d="M60 274.889H110V278H60V274.889Z" fill="white"/>
<path d="M365 250H415V253.111H365V250Z" fill="#BDAE82"/>
<path d="M365 262.444H415V265.556H365V262.444Z" fill="#BDAE82"/>
<path d="M365 274.889H415V278H365V274.889Z" fill="#BDAE82"/>
<path d="M63.6521 369.691L84.5197 348.824M84.5197 348.824L107.344 326M84.5197 348.824L106.691 370.996M84.5197 348.824L63 327.304" stroke="white" stroke-width="2"/>
<path d="M368.652 369.691L389.52 348.824M389.52 348.824L412.344 326M389.52 348.824L411.691 370.996M389.52 348.824L368 327.304" stroke="#BDAE82" stroke-width="2"/>
</svg>
