<?xml version="1.0" encoding="UTF-8" standalone="no"?>
<svg
   xmlns:dc="http://purl.org/dc/elements/1.1/"
   xmlns:cc="http://creativecommons.org/ns#"
   xmlns:rdf="http://www.w3.org/1999/02/22-rdf-syntax-ns#"
   xmlns:svg="http://www.w3.org/2000/svg"
   xmlns="http://www.w3.org/2000/svg"
   xmlns:sodipodi="http://sodipodi.sourceforge.net/DTD/sodipodi-0.dtd"
   xmlns:inkscape="http://www.inkscape.org/namespaces/inkscape"
   inkscape:version="1.0 (4035a4fb49, 2020-05-01)"
   sodipodi:docname="GitHub_Logo - копия.svg"
   viewBox="0 0 555.00001 200.00001"
   height="52.916668mm"
   width="146.84375mm"
   id="svg2"
   version="1.1">
  <metadata
     id="metadata8">
    <rdf:RDF>
      <cc:Work
         rdf:about="">
        <dc:format>image/svg+xml</dc:format>
        <dc:type
           rdf:resource="http://purl.org/dc/dcmitype/StillImage" />
        <dc:title></dc:title>
      </cc:Work>
    </rdf:RDF>
  </metadata>
  <defs
     id="defs6" />
  <sodipodi:namedview
     inkscape:current-layer="g10"
     inkscape:window-maximized="1"
     inkscape:window-y="-8"
     inkscape:window-x="-8"
     inkscape:cy="234.42323"
     inkscape:cx="445.85433"
     inkscape:zoom="1.3014896"
     fit-margin-bottom="0"
     fit-margin-right="0"
     fit-margin-left="0"
     fit-margin-top="0"
     units="mm"
     showgrid="false"
     id="namedview4"
     inkscape:window-height="1092"
     inkscape:window-width="1920"
     inkscape:pageshadow="2"
     inkscape:pageopacity="0"
     guidetolerance="10"
     gridtolerance="10"
     objecttolerance="10"
     borderopacity="1"
     bordercolor="#666666"
     pagecolor="#ffffff" />
  <g
     transform="translate(-356.72477,-323.9814)"
     id="g10"
     inkscape:label="Image"
     inkscape:groupmode="layer">
    <path
       id="path837"
       d="m 410.47089,523.14172 c -30.41527,-4.75038 -47.09533,-26.90281 -52.6371,-69.90611 -1.33056,-10.32497 -1.50604,-41.77033 -0.2967,-53.16758 4.5896,-43.2536 18.84451,-66.78314 45.10933,-74.45848 7.51553,-2.19641 28.88383,-2.16422 38.24282,0.0581 7.36815,1.74921 15.38087,5.07801 17.56251,7.29654 l 1.49408,1.51902 -2.69967,15.50601 c -1.48481,8.52816 -3.06128,16.02718 -3.50327,16.66433 -0.66899,0.96434 -1.92069,0.77125 -7.47137,-1.15318 -8.14563,-2.82417 -23.67215,-3.92371 -31.21944,-2.2107 -13.12677,2.97927 -21.62328,14.22053 -25.28876,33.45828 -2.8866,15.15 -2.87666,40.77091 0.0218,56.01097 2.34693,12.34013 7.55959,22.79048 13.84134,27.74893 4.84482,3.82404 9.93608,4.95665 20.28641,4.51259 5.15666,-0.22125 9.71204,-0.68163 10.12309,-1.02333 0.53128,-0.44161 0.74738,-6.10492 0.74738,-19.58572 v -18.96465 h -9.61846 c -8.85165,0 -9.67146,-0.13409 -10.28377,-1.67189 -0.3859,-0.9697 -0.66534,-8.02241 -0.66534,-16.79283 0,-12.59401 0.16878,-15.34801 1.01001,-16.47929 0.8813,-1.18513 3.99937,-1.35833 24.46624,-1.35833 14.93985,0 23.90763,0.32494 24.69945,0.89483 1.20661,0.86823 1.24324,2.3325 1.24324,49.71877 v 48.82394 l -3.02545,2.58035 c -11.66123,9.94505 -33.31348,14.92026 -52.13829,11.9801 z m 334.11148,0.39825 c -8.89024,-1.60395 -15.23506,-5.18707 -19.61543,-11.07767 -3.45703,-4.64914 -5.1703,-9.07972 -6.77637,-17.52452 -1.15951,-6.09688 -1.2459,-9.89052 -1.2459,-54.72348 0,-43.12956 0.10653,-48.22746 1.01668,-48.69723 1.46727,-0.75716 27.44102,-0.62128 28.34068,0.1475 0.55802,0.47737 0.8101,12.05564 0.96412,44.28431 0.19883,41.60741 0.26834,43.79845 1.494,47.08412 0.70702,1.89537 2.29778,4.36174 3.53507,5.48072 2.05011,1.85448 2.79095,2.00645 8.35557,1.71301 5.21899,-0.27511 6.73623,-0.7194 10.44447,-3.05838 l 4.33846,-2.73657 v -45.68287 c 0,-34.37836 0.19086,-45.9392 0.7713,-46.71983 1.09186,-1.4683 27.5742,-1.4683 28.66606,0 1.11608,1.50092 1.11608,126.0762 0,127.57712 -0.525,0.70599 -3.58915,1.03719 -9.59515,1.03719 -9.91664,0 -10.84389,-0.48563 -10.84389,-5.68008 0,-1.62987 -0.16169,-2.9634 -0.35931,-2.9634 -0.19762,0 -2.7284,1.53534 -5.62395,3.41171 -8.32931,5.39782 -15.58615,7.86129 -24.22536,8.22355 -4.06532,0.16985 -8.40378,0.12739 -9.64105,-0.0961 z m 123.72681,0.0358 c -9.0989,-1.7995 -18.47699,-6.30382 -23.19022,-11.13824 -2.28159,-2.34032 -2.83056,-1.78675 -2.85045,2.87423 -0.0199,4.6887 -0.42475,4.8771 -11.12356,5.17456 -8.49591,0.23622 -10.04644,0.0738 -10.95119,-1.14223 -0.96361,-1.29598 -1.05393,-9.33293 -1.05393,-93.7787 0,-82.81232 0.10437,-92.50171 1.01001,-93.71947 0.85248,-1.14648 3.0645,-1.35834 14.18246,-1.35834 7.85096,0 13.67469,0.3616 14.41566,0.89483 1.19426,0.85952 1.24324,2.13629 1.24324,32.41282 0,17.335 0.10868,31.51821 0.24138,31.51821 0.13278,0 1.90761,-0.99093 3.94409,-2.20221 8.95912,-5.32809 22.94069,-7.21519 31.51207,-4.25313 20.00166,6.91237 28.75557,35.03853 25.29964,81.28704 -2.28221,30.54092 -9.98294,46.6081 -24.83245,51.81126 -3.80964,1.33487 -14.41815,2.29742 -17.84675,1.61937 z m 5.48777,-35.12928 c 2.27289,-1.54137 3.23095,-2.93099 4.61835,-6.69871 2.26053,-6.13889 3.34133,-17.8298 2.87666,-31.11639 -0.55174,-15.77687 -3.04246,-24.06792 -8.37706,-27.88548 -4.78776,-3.42623 -14.73907,-2.27283 -21.79891,2.52672 l -1.76755,1.20145 v 29.25901 29.25923 l 3.17852,1.83861 c 4.55254,2.63376 7.37686,3.37506 13.23578,3.47339 4.16611,0.0693 5.72162,-0.28964 8.03421,-1.85783 z M 559.0897,521.95211 c -5.03447,-1.47298 -9.91705,-4.82033 -13.48808,-9.24688 -3.3825,-4.19301 -4.95817,-7.46885 -6.84533,-14.23148 -1.34055,-4.80402 -1.42848,-6.768 -1.75527,-39.19892 l -0.344,-34.1417 -7.71285,-0.43222 -7.71282,-0.43199 -0.1785,-12.89795 c -0.10254,-7.40962 0.0833,-13.25016 0.43661,-13.72529 0.33831,-0.45501 3.88942,-1.85983 7.89132,-3.12207 l 7.27624,-2.29496 0.17385,-18.51366 c 0.12663,-13.4875 0.38839,-18.6967 0.96411,-19.18859 0.92429,-0.78957 26.23251,-0.95115 27.73264,-0.17655 0.88213,0.45524 1.01667,2.91178 1.01667,18.5626 v 18.03787 l 10.76584,0.23689 10.76585,0.23712 v 16.42252 16.42252 l -10.60518,0.43199 -10.60514,0.43222 v 28.24529 c 0,32.10642 -0.14275,31.19505 5.50088,35.09664 2.4475,1.692 3.73928,1.95437 9.05637,1.83972 3.41093,-0.0737 6.52017,0.13186 6.90942,0.45457 1.09565,0.91047 0.9627,27.6488 -0.14358,28.88355 -2.90257,3.23963 -20.99808,4.66926 -29.09904,2.29921 z m 43.9299,-2.24244 c -1.06022,-0.83047 -1.1248,-6.23476 -1.1248,-94.15683 0,-91.33445 0.0259,-93.29441 1.24324,-94.17047 1.65622,-1.19207 26.06594,-1.19207 27.72217,0 1.1973,0.86175 1.24323,2.1707 1.24323,35.43813 v 34.54329 H 652.671 673.23859 V 366.8205 c 0,-33.26743 0.0459,-34.57638 1.24322,-35.43813 1.57647,-1.13463 26.99386,-1.17843 28.32267,-0.0492 0.84728,0.72029 0.96411,12.13922 0.96411,94.2317 0,82.09249 -0.11683,93.51142 -0.96411,94.23171 -1.32881,1.12971 -26.7462,1.08591 -28.32267,-0.0492 -1.20175,-0.86488 -1.24322,-2.2344 -1.24322,-41.0563 v -40.1614 H 652.671 632.10344 v 40.16146 c 0,38.8219 -0.0415,40.19142 -1.24323,41.0563 -1.63963,1.18022 -26.32841,1.1458 -27.84061,-0.038 z m -121.83075,-0.96813 c -1.11604,-1.5007 -1.11604,-125.21199 0,-126.71269 0.55263,-0.74331 4.73694,-1.03719 14.76033,-1.03719 13.17274,0 14.02787,0.0983 14.65439,1.67189 0.92083,2.31373 0.92083,123.12956 0,125.44329 -0.62652,1.57445 -1.48165,1.67189 -14.65439,1.67189 -10.02339,0 -14.2077,-0.29388 -14.76033,-1.03719 z m 10.15109,-138.92968 c -6.78053,-2.77366 -11.39529,-10.4242 -12.03808,-19.95715 -1.47229,-21.83486 18.48615,-33.29692 29.27574,-16.81294 2.88131,4.40197 3.97681,8.65756 3.97681,15.44902 0,8.82584 -3.10608,15.43964 -9.16244,19.50951 -3.9883,2.68002 -8.33252,3.33304 -12.05203,1.81156 z"
       style="fill:#000000;stroke-width:0.745351" />
  </g>
</svg>
