<?xml version="1.0" encoding="UTF-8" standalone="no"?>
<svg
   width="40"
   height="40"
   viewBox="0 0 40 40"
   version="1.1"
   id="svg4"
   sodipodi:docname="iconmonstr-github-1.svg"
   inkscape:version="1.1.2 (b8e25be833, 2022-02-05)"
   xmlns:inkscape="http://www.inkscape.org/namespaces/inkscape"
   xmlns:sodipodi="http://sodipodi.sourceforge.net/DTD/sodipodi-0.dtd"
   xmlns="http://www.w3.org/2000/svg"
   xmlns:svg="http://www.w3.org/2000/svg">
  <defs
     id="defs8" />
  <sodipodi:namedview
     id="namedview6"
     pagecolor="#ffffff"
     bordercolor="#666666"
     borderopacity="1.0"
     inkscape:pageshadow="2"
     inkscape:pageopacity="0.0"
     inkscape:pagecheckerboard="0"
     showgrid="false"
     inkscape:zoom="1"
     inkscape:cx="-349"
     inkscape:cy="15"
     inkscape:window-width="1920"
     inkscape:window-height="1091"
     inkscape:window-x="-8"
     inkscape:window-y="-8"
     inkscape:window-maximized="1"
     inkscape:current-layer="svg4"
     fit-margin-top="0"
     fit-margin-left="0"
     fit-margin-right="0"
     fit-margin-bottom="0" />
  <path
     d="M 20,0 C 8.9566667,0 0,9.1813853 0,20.505607 0,29.565667 5.73,37.251853 13.678333,39.963719 14.676667,40.153395 15,39.517722 15,38.977741 v -3.81746 c -5.5633333,1.240588 -6.7216667,-2.419662 -6.7216667,-2.419662 -0.91,-2.370107 -2.2216666,-3.000653 -2.2216666,-3.000653 -1.815,-1.273058 0.1383328,-1.245718 0.1383328,-1.245718 2.0083333,0.143534 3.065,2.113787 3.065,2.113787 1.7833335,3.13394 4.6783335,2.228278 5.8200005,1.703674 0.178333,-1.324321 0.696667,-2.229983 1.27,-2.740915 -4.441667,-0.521186 -9.1116672,-2.27954 -9.1116672,-10.134896 0,-2.240238 0.7816667,-4.068655 2.06,-5.504047 -0.2066665,-0.517767 -0.8916665,-2.604212 0.195,-5.4271506 0,0 1.6800002,-0.5502337 5.5016672,2.1018246 C 16.59,10.151984 18.3,9.9247138 20,9.9161698 c 1.7,0.00855 3.411667,0.2358142 5.01,0.6903552 3.818333,-2.6520583 5.495,-2.1018246 5.495,-2.1018246 1.088333,2.8246476 0.403333,4.9110936 0.196667,5.4271506 C 31.985,15.367243 32.76,17.197368 32.76,19.435898 c 0,7.875861 -4.678333,9.610294 -9.131667,10.117808 C 24.345,30.189379 25,31.436804 25,33.350661 v 5.62708 c 0,0.545106 0.32,1.185908 1.335,0.984268 C 34.276667,37.246726 40,29.562248 40,20.505607 40,9.1813853 31.045,0 20,0 Z"
     id="path2"
     style="stroke-width:1.68759" />
</svg>
