<?xml version="1.0" encoding="UTF-8" standalone="no"?>
<svg
   width="47.894234"
   height="40"
   viewBox="0.28 -3.304 47.894234 40"
   version="1.1"
   id="svg130"
   sodipodi:docname="logo-rs.svg"
   inkscape:version="1.1.2 (b8e25be833, 2022-02-05)"
   xmlns:inkscape="http://www.inkscape.org/namespaces/inkscape"
   xmlns:sodipodi="http://sodipodi.sourceforge.net/DTD/sodipodi-0.dtd"
   xmlns="http://www.w3.org/2000/svg"
   xmlns:svg="http://www.w3.org/2000/svg">
  <defs
     id="defs134" />
  <sodipodi:namedview
     id="namedview132"
     pagecolor="#ffffff"
     bordercolor="#666666"
     borderopacity="1.0"
     inkscape:pageshadow="2"
     inkscape:pageopacity="0.0"
     inkscape:pagecheckerboard="0"
     showgrid="false"
     inkscape:zoom="0.93286197"
     inkscape:cx="749.84298"
     inkscape:cy="159.72352"
     inkscape:window-width="1920"
     inkscape:window-height="1091"
     inkscape:window-x="-8"
     inkscape:window-y="-8"
     inkscape:window-maximized="1"
     inkscape:current-layer="svg130"
     fit-margin-top="0"
     fit-margin-left="0"
     fit-margin-right="0"
     fit-margin-bottom="0" />
  <path
     d="m 20.457354,-1.7552836 c 2.875701,-1.2166143 6.040609,-1.7141173 9.152866,-1.5006892 3.046741,0.2290447 6.04217,1.1511729 8.674028,2.70763597 2.358864,1.3898851 4.430603,3.26537483 6.046633,5.47625153 1.886644,2.5745221 3.145721,5.6078783 3.621584,8.7654233 0.365133,2.503132 0.290767,5.082116 -0.307947,7.543455 0.389674,0.762243 0.584511,1.639901 0.452959,2.492125 -0.150292,1.2828 -0.972697,2.456133 -2.117846,3.05046 -0.261096,0.17922 -0.647795,0.182195 -0.825528,0.467013 -2.086017,3.341822 -5.169198,6.0592 -8.764679,7.67523 -0.750345,0.35026 -1.531923,0.627642 -2.316401,0.889407 l -0.162786,0.0357 C 30.131074,37.00682 26.005963,36.96592 22.23193,35.800617 19.406872,34.906004 16.775014,33.396391 14.602063,31.378864 12.5214,29.460986 10.851158,27.099892 9.7437865,24.49488 9.2500018,23.351887 8.8923053,22.156095 8.6007938,20.948405 8.0802376,20.63027 7.4526698,20.539396 6.8532122,20.608704 5.6151064,20.736613 4.4438549,21.184142 3.2457575,21.490527 4.0994697,20.861397 5.0305217,20.337866 5.9957817,19.901343 4.4623718,19.921496 2.958708,20.282093 1.4714045,20.627296 1.0728071,20.726201 0.67413543,20.828007 0.28,20.941786 1.811179,19.303596 3.8257315,18.194885 5.9027509,17.402004 5.1924891,17.311278 4.4727086,17.227097 3.7944238,16.984071 3.1586016,16.771387 2.5659111,16.441949 2.0334565,16.035915 c 0.5131197,-0.01562 1.0284703,0.01703 1.5401027,-0.04239 1.5795163,0.01115 3.2378597,-0.07437 4.6463362,-0.867841 0.2587164,-3.424517 1.4366608,-6.7746682 3.3701556,-9.6116994 2.171463,-3.2104189 5.288851,-5.77601753 8.867303,-7.2692702 z"
     id="path2"
     style="stroke-width:0.0743652" />
  <path
     fill="#f9fcfa"
     d="m 25.958072,-2.5413235 c 2.533621,-0.2602781 5.12376,-0.088495 7.571862,0.6365659 5.178047,1.47540507 9.648881,5.2263845 12.010719,10.0630954 1.167534,2.3439902 1.847306,4.9325682 1.966959,7.5488092 -0.01703,0.547179 0.08188,1.093168 0.0097,1.639008 -0.01636,1.077403 -0.161373,2.147667 -0.359928,3.205734 a 8.77985,8.77985 0 0 0 -0.441655,-0.389524 c 0.21789,-1.396578 0.376363,-2.814871 0.285563,-4.229148 -0.01941,-0.369744 -0.03123,-0.73919 -0.06767,-1.107446 C 46.637688,11.889908 45.646326,9.0245438 44.041526,6.5466958 42.426983,4.0309963 40.207183,1.9063833 37.623737,0.40346307 34.94659,-1.155231 31.879845,-2.0572805 28.78023,-2.1309021 c -0.372569,-0.05503 -0.750344,-0.014873 -1.125145,-0.027515 l -0.04982,0.036439 c -3.253476,0.046106 -6.473562,1.0448307 -9.247383,2.73217647 C 15.639086,2.2744909 13.347895,4.6333542 11.77284,7.4056878 10.557713,9.5228648 9.7724915,11.882397 9.4594141,14.30224 9.3128403,14.480717 9.095694,14.580366 8.9024189,14.698606 9.2556535,11.092788 10.690158,7.6101918 12.92855,4.7649062 c 2.336553,-2.9812998 5.561771,-5.26133613 9.159558,-6.4496172 1.256846,-0.415627 2.555931,-0.7011893 3.869964,-0.8566125 z"
     id="path4"
     style="stroke-width:0.0743652" />
  <path
     fill="#fcfdfc"
     d="m 26.811858,-0.98262943 c 0.384468,-0.19409307 0.919823,-0.22309547 1.239668,0.1063422 0.218559,0.1970677 0.253511,0.5071705 0.326463,0.7763724 -0.208966,0.017848 -0.418676,0.029746 -0.627568,0.027515 -0.07139,-0.13237 -0.07437,-0.3428234 -0.239456,-0.3978536 -0.133113,-0.034208 -0.269945,0.00372 -0.402315,0.018591 -0.01049,0.1115478 -0.01636,0.2230956 -0.01933,0.335387 0.377701,0.1390629 0.801582,0.2178899 1.09763,0.5131197 0.330925,0.3123337 0.304971,0.84627573 0.107011,1.22405083 -0.295229,0.5547642 -1.122988,0.6312859 -1.583978,0.2491233 -0.246223,-0.232763 -0.292924,-0.580792 -0.343567,-0.89758773 0.224657,0 0.449166,0 0.673823,-0.00223 0.04908,0.13608833 0.06842,0.28928053 0.161372,0.40677753 0.0914,0.1375756 0.268384,0.084033 0.407447,0.091469 0.09809,-0.1725272 0.153267,-0.3763622 0.08842,-0.57038093 -0.216333,-0.203761 -0.538334,-0.2007864 -0.793481,-0.3339001 -0.588972,-0.2573035 -0.651439,-1.2247944 -0.09214,-1.5467956 z"
     id="path6"
     style="stroke-width:0.0743652" />
  <path
     fill="#fbfdfa"
     d="m 29.761107,-0.95065243 c 0.368107,-0.074365 0.827684,-0.06321 1.099117,0.2387122 0.223839,0.2275575 0.252098,0.5666627 0.249123,0.8685853 -0.194018,-0.00521 -0.387442,-0.021566 -0.57923,-0.045363 -0.06329,-0.138319 -0.101137,-0.2855621 -0.158472,-0.4261122 -0.127165,-0.0185913 -0.278869,-0.1227026 -0.394954,-0.0275151 -0.150292,0.06916 -0.169478,0.3034099 -0.0088,0.3718258 0.315234,0.1673217 0.673823,0.2967171 0.893944,0.5949214 0.279613,0.3465417 0.196993,0.86561073 -0.03941,1.21215243 -0.379931,0.5376602 -1.305109,0.5094758 -1.667267,-0.029672 -0.168065,-0.2491977 -0.156241,-0.5644317 -0.166504,-0.85073763 0.220865,0.026771 0.441655,0.057261 0.664081,0.06916 0.03941,0.1702962 0.02238,0.3725695 0.15468,0.5049395 0.07593,0.044694 0.163603,0.063285 0.247636,0.087825 0.04313,-0.023797 0.127908,-0.070647 0.170296,-0.094518 0.0914,-0.1621161 0.11073,-0.3465418 0.07734,-0.52799283 -0.298332,-0.1888874 -0.664208,-0.2811002 -0.912588,-0.5398911 -0.349516,-0.4358542 -0.197068,-1.2337926 0.371008,-1.4063198 z m -5.963269,0.4618078 c 0.273738,-0.2164027 0.650695,-0.269202 0.983777,-0.1829384 0.389673,0.1383193 0.650695,0.519069 0.704907,0.9213845 -0.218559,0.055774 -0.438085,0.1100605 -0.660363,0.1427812 -0.03421,-0.1078295 -0.06767,-0.215659 -0.101062,-0.3227449 -0.117497,-0.026771 -0.23425,-0.052799 -0.351673,-0.078827 -0.116753,0.081058 -0.266227,0.1464994 -0.29746,0.301179 0.06842,0.4127267 0.156166,0.82247883 0.252767,1.22851273 0.0528,0.2751511 0.440242,0.3637201 0.624593,0.164347 0.125008,-0.1085731 0.07808,-0.2929244 0.103442,-0.4372672 0.20153,-0.06321 0.406034,-0.1264208 0.616487,-0.1546796 0.141963,0.1948368 0.130139,0.4625514 0.0728,0.6863906 -0.145752,0.3919044 -0.552604,0.6053324 -0.93551,0.7034944 -0.505758,0.070647 -1.076734,-0.2729201 -1.155635,-0.7986819 -0.08924,-0.4595768 -0.183756,-0.91840993 -0.26184,-1.37947403 -0.06373,-0.3242322 0.160778,-0.6105381 0.40477,-0.7934764 z M 34.208219,1.0765423 c 0.16509,-0.34579813 0.479581,-0.68787793 0.894538,-0.67003023 0.575587,0.00372 1.227026,0.4774244 1.130351,1.10952843 -0.08329,0.4350362 -0.335461,0.811324 -0.492297,1.2210761 -0.178402,0.3718259 -0.308542,0.768936 -0.522788,1.1229142 -0.202942,-0.052799 -0.386624,-0.1568362 -0.577073,-0.2408688 0.04767,-0.284075 0.204504,-0.5294801 0.311515,-0.7919891 0.175428,-0.4157014 0.375544,-0.8209916 0.541379,-1.2404111 0.06842,-0.1398066 -0.02015,-0.2744075 -0.0647,-0.4045466 -0.176989,-0.026028 -0.422468,-0.086264 -0.517582,0.117497 -0.301253,0.6611064 -0.586071,1.3296493 -0.887845,1.9900121 -0.246223,-0.024541 -0.466344,-0.1450121 -0.676054,-0.2662274 0.281918,-0.650844 0.577148,-1.2962593 0.860554,-1.9469546 z"
     id="path8"
     style="stroke-width:0.0743652" />
  <path
     fill="#fafdfa"
     d="m 18.39967,1.7919353 c 0.193349,-0.1160841 0.384468,-0.2379686 0.58741,-0.3368743 0.454372,0.7183676 0.846276,1.4754051 1.293954,2.198309 0.336131,-0.1897056 0.662594,-0.3949535 1.005418,-0.5696373 0.114522,0.1888876 0.223095,0.3807497 0.323562,0.5770738 C 21.070049,3.9515743 20.54808,4.2743192 20.011907,4.5733415 19.472759,3.6465284 18.947741,2.7125761 18.39967,1.7919353 Z"
     id="path10"
     style="stroke-width:0.0743652" />
  <path
     fill="#fbfdfa"
     d="m 37.109204,2.0217237 c 0.48263,-0.3212576 1.221894,-0.134601 1.492435,0.3777751 0.08113,0.1353446 0.119728,0.2900241 0.171858,0.4387545 -0.01487,0.2089661 -0.04313,0.429087 -0.174015,0.6016142 -0.281844,0.3896736 -0.543684,0.7942201 -0.838839,1.1734081 -0.216328,0.2707636 -0.59864,0.3279505 -0.920641,0.2544033 C 36.239132,4.7539002 35.795171,4.0607424 36.039015,3.4784631 36.193694,3.19885 36.400355,2.951214 36.573626,2.6827557 36.743327,2.4560163 36.877854,2.1935072 37.109204,2.0217237 Z"
     id="path12"
     style="stroke-width:0.0743652" />
  <path
     fill="#010101"
     d="m 37.27199,2.7727376 c 0.08031,-0.1316264 0.22012,-0.199968 0.357027,-0.2602781 0.113109,0.049899 0.22607,0.1011366 0.337618,0.1562412 0.06023,0.1680653 0.136832,0.3672896 0.01777,0.5302237 -0.176246,0.2706892 -0.362902,0.5346856 -0.553203,0.7949637 -0.176245,0.2149154 -0.496833,0.2260701 -0.70803,0.057261 -0.02967,-0.083289 -0.05949,-0.1650907 -0.08924,-0.247636 0.140625,-0.3837243 0.414958,-0.6945708 0.638054,-1.0307757 z"
     id="path14"
     style="stroke-width:0.0743652" />
  <path
     fill="#fbfdfb"
     d="m 16.595496,3.1534873 c 0.368852,-0.384468 1.071602,-0.467757 1.456888,-0.062467 0.510815,0.5540206 1.03732,1.095399 1.534898,1.663549 -0.162116,0.149474 -0.319027,0.3048972 -0.481143,0.4536275 -0.531711,-0.5056831 -0.988313,-1.0841698 -1.51705,-1.592084 -0.110804,-0.118315 -0.282587,-0.068416 -0.424625,-0.072878 -0.09147,0.1405502 -0.192606,0.3391796 -0.06172,0.4900665 0.470732,0.5331983 0.964516,1.0470617 1.45607,1.5616687 -0.0022,0.045363 -0.0037,0.091469 -0.0052,0.13765 -0.16733,0.1338576 -0.318217,0.2863062 -0.476689,0.4305746 C 17.633708,5.6723101 17.168182,5.2015785 16.730246,4.7063065 16.607543,4.581373 16.473686,4.4066892 16.274387,4.4631324 c -0.204504,0.057261 -0.330181,0.3346432 -0.157654,0.4960157 0.488579,0.5473277 0.99575,1.078295 1.50069,1.6114933 C 17.467949,6.7520928 17.287985,6.9037978 17.108765,7.0555768 16.602338,6.5298149 16.113015,5.9869492 15.609563,5.458882 15.316638,5.179269 15.265252,4.7211795 15.425212,4.3590211 c 0.129321,-0.3792624 0.519738,-0.597078 0.906437,-0.615 0.05562,-0.2090405 0.108424,-0.4298307 0.263847,-0.5905338 z"
     id="path16"
     style="stroke-width:0.0743652" />
  <path
     fill="#ffffff"
     d="m 22.518682,4.231113 c 2.631115,-1.2076904 5.651754,-1.5296916 8.481423,-0.9258464 2.73292,0.5711989 5.268029,2.0183452 7.171703,4.0566942 1.040369,1.120609 1.89713,2.409358 2.52388,3.8044482 0.423881,0.995006 0.768936,2.031062 0.941463,3.101772 -1.422606,-0.27887 -2.827438,-0.657388 -4.193527,-1.14448 -0.648464,-0.23425 -1.290905,-0.493041 -1.897055,-0.823223 -0.09593,-0.04982 -0.181451,-0.115266 -0.247636,-0.199298 -0.274408,-0.32572 -0.548815,-0.649952 -0.823966,-0.974184 -0.06923,-0.127165 -0.217965,-0.07898 -0.333082,-0.08493 a 6.5303035,6.5303035 0 0 1 -0.06172,-0.397854 C 33.810216,10.369066 33.816091,9.9779048 33.803449,9.6187208 33.691901,8.5292718 33.745519,7.4093318 33.424187,6.3496281 33.002536,5.4111396 32.138413,4.6518712 31.109942,4.4733948 30.38332,4.3596904 29.631563,4.4161336 28.925094,4.6184068 27.611805,4.9865145 26.411476,5.6640556 25.27302,6.4009401 c -1.028396,0.6760537 -2.005629,1.4278117 -2.95148,2.2139257 -1.169689,0.0647 -2.251033,0.560713 -3.27876,1.084988 -0.673749,0.3279502 -1.34601,0.6908522 -2.085943,0.8455322 -0.368108,0.04685 -0.738447,0.07511 -1.100605,0.162785 1.38401,-2.8428322 3.780874,-5.1749981 6.66245,-6.477058 z"
     id="path18"
     style="stroke-width:0.0743652" />
  <path
     fill="#fbfdfb"
     d="m 39.487328,3.5893416 c 0.125603,-0.1264208 0.234994,-0.3086155 0.438085,-0.2959734 0.327951,0.3993409 0.854382,0.66185 0.993445,1.1920737 0.04767,0.2893549 -0.01562,0.612769 -0.223096,0.8291717 -0.30341,0.3413362 -0.614331,0.6767231 -0.936257,1.0009553 -0.257304,0.2706892 -0.678211,0.2929244 -1.014416,0.1851692 -0.423063,-0.228301 -0.74737,-0.596483 -1.096886,-0.9198972 0.595739,-0.679772 1.236767,-1.3178252 1.839125,-1.9914993 z"
     id="path20"
     style="stroke-width:0.0743652" />
  <path
     fill="#010001"
     d="m 39.874027,4.245986 c 0.190449,0.1145224 0.346467,0.2855623 0.357771,0.5198126 -0.337618,0.365133 -0.674492,0.7317533 -1.018803,1.0909371 -0.106417,-0.00223 -0.213428,-0.00372 -0.319027,-0.00595 -0.08998,-0.087751 -0.180781,-0.1755018 -0.270763,-0.2618398 A 60.635504,60.635504 0 0 0 39.874027,4.245986 Z"
     id="path22"
     style="stroke-width:0.0743652" />
  <path
     fill="#ffffff"
     d="m 27.080986,6.7119348 c 1.035981,-0.5956646 2.137999,-1.158609 3.341302,-1.2962589 0.762986,-0.102624 1.622573,0.1227025 2.099254,0.762243 0.388856,0.4254432 0.432136,1.0270579 0.484935,1.5728239 0.06842,0.548071 0.03793,1.103579 0.122629,1.650906 -0.213428,0.0409 -0.424626,0.101881 -0.641772,0.118985 -0.111548,-0.0528 -0.222352,-0.104037 -0.320588,-0.177733 -0.03793,-0.14873 -0.06098,-0.300435 -0.08403,-0.45214 -0.876765,0.162859 -1.801199,0.34431 -2.518748,0.909411 -0.360746,0.2751522 -0.574174,0.7005952 -0.648539,1.1422502 -7.44e-4,0.133113 -0.0037,0.26697 0.0059,0.401571 0.12129,0.100988 0.295304,0.07437 0.441655,0.110656 -0.204504,0.375693 -0.387443,0.769084 -0.443216,1.197428 v 0.297461 c 0.342823,-0.05354 0.634335,-0.249867 0.954923,-0.368108 -0.01406,0.0766 -0.04172,0.229788 -0.05503,0.306384 -0.0067,0.104112 -0.01264,0.208223 -0.01777,0.312334 a 3.1144135,3.1144135 0 0 0 0.241687,0.47445 c 0.461808,-0.100542 0.861075,-0.367364 1.302134,-0.525167 l -0.05064,0.255816 c 0.01785,0.05057 0.05287,0.150962 0.06983,0.200786 a 3.9246221,3.9246221 0 0 0 1.324518,-0.60087 c 0.521374,-0.334644 1.027726,-0.774142 1.662136,-0.856761 0.354052,0.223095 0.518994,0.684159 0.8932,0.899223 0.608307,0.367215 1.268744,0.637905 1.93052,0.892382 1.359321,0.50494 2.758204,0.903388 4.177092,1.201593 0.737702,0.161372 1.48946,0.271433 2.204853,0.519812 0.400084,0.145013 0.803218,0.389674 0.980207,0.794964 0.333082,0.796451 0.328694,1.738658 -0.06388,2.512799 -0.351673,0.648465 -0.979463,1.177945 -1.714191,1.31909 -2.941961,0.680441 -5.931441,1.137936 -8.92226,1.535641 -0.888663,0.09816 -1.775096,0.205248 -2.666065,0.280431 -2.053892,0.183756 -4.116187,0.286975 -6.179821,0.26184 -0.675979,0.0097 -1.357908,-0.006 -2.018271,-0.162786 -0.258716,-0.09809 -0.524349,-0.208297 -0.711005,-0.420832 -0.255742,-0.248454 -0.327133,-0.609795 -0.392648,-0.945182 -0.109317,-0.615743 -0.255742,-1.228587 -0.276639,-1.856229 -0.02305,-0.545915 0.162191,-1.067214 0.265484,-1.596694 0.320514,-1.59729 0.571794,-3.210345 0.980133,-4.789861 0.05421,-0.19335 0.02372,-0.397854 0.07734,-0.591055 0.214989,-0.898331 0.4685,-1.786326 0.70052,-2.6801952 0.02752,-0.0766 0.03793,-0.168883 0.102624,-0.223096 1.070338,-0.863825 2.176817,-1.688535 3.362198,-2.388312 z"
     id="path24"
     style="stroke-width:0.0743652" />
  <path
     fill="#fbfdfb"
     d="m 39.412219,7.3403208 c 0.867842,-0.627642 1.732709,-1.2590766 2.601963,-1.8844877 0.310103,0.447009 0.638054,0.8813017 0.953362,1.3245177 -0.17922,0.126421 -0.348103,0.269202 -0.542122,0.371826 -0.212685,-0.240943 -0.390417,-0.5108885 -0.57633,-0.7727283 -0.13832,0.096749 -0.278126,0.1911185 -0.417933,0.2848187 0.0081,0.2171466 0.187475,0.3651326 0.28995,0.5436836 -0.164347,0.122628 -0.330925,0.243918 -0.501965,0.357697 -0.113704,-0.158398 -0.223095,-0.319771 -0.351003,-0.46627 -0.147987,0.08626 -0.286381,0.186657 -0.426113,0.284001 l -0.09809,0.122033 c 0.188887,0.255072 0.377775,0.510071 0.555582,0.774141 -0.176246,0.133858 -0.357027,0.261022 -0.543684,0.379932 -0.308541,-0.443886 -0.657314,-0.860331 -0.94362,-1.319164 z"
     id="path26"
     style="stroke-width:0.0743652" />
  <path
     fill="#fcfdfa"
     d="m 14.051464,5.8098857 c 0.0699,-0.094518 0.127164,-0.203017 0.224657,-0.2721766 0.194019,0.086264 0.348698,0.2394559 0.520556,0.3629021 -0.135345,0.1881439 -0.274407,0.3725695 -0.399341,0.5688936 0.686316,0.491479 1.363857,0.995006 2.051735,1.483511 -0.10188,0.193424 -0.236481,0.365877 -0.368107,0.539147 -0.699777,-0.495272 -1.385424,-1.009879 -2.085944,-1.503663 -0.118984,0.176245 -0.232019,0.357696 -0.368851,0.520556 -0.21789,-0.01115 -0.369595,-0.225327 -0.551789,-0.328694 0.296717,-0.476607 0.660288,-0.9071811 0.977084,-1.3704761 z"
     id="path28"
     style="stroke-width:0.0743652" />
  <path
     fill="#fcfefb"
     d="m 12.308418,8.5985798 c 0.116754,-0.226888 0.234251,-0.453702 0.376288,-0.665568 0.918484,0.499734 1.860691,0.962211 2.764154,1.488047 0.01115,0.251354 -0.20153,0.475937 -0.319771,0.6924142 -0.380006,-0.1814512 -0.728035,-0.4313922 -1.125145,-0.5726122 -0.05875,0.129321 -0.118984,0.25946 -0.177732,0.390417 0.358365,0.2141722 0.755475,0.3629022 1.095324,0.6097952 -0.109317,0.221534 -0.229045,0.438085 -0.345054,0.655826 -0.942207,-0.473706 -1.865822,-0.985338 -2.798362,-1.4754052 -0.03495,-0.141294 0.08701,-0.271433 0.136832,-0.398597 0.06618,-0.09296 0.09296,-0.240125 0.20971,-0.281026 0.377775,0.168809 0.727217,0.396366 1.104992,0.567406 0.0699,-0.130139 0.141294,-0.259534 0.217146,-0.386699 -0.3777,-0.211271 -0.764325,-0.406852 -1.138382,-0.623998 z"
     id="path30"
     style="stroke-width:0.0743652" />
  <path
     fill="#f6fcf8"
     d="m 40.687656,8.9525578 c 0.08403,-0.229045 0.368034,-0.243248 0.548815,-0.123446 0.0789,0.162116 0.08545,0.3339 -0.0045,0.493041 -0.09072,0.0357 -0.180707,0.07139 -0.270764,0.108573 -0.16576,-0.09296 -0.410347,-0.260278 -0.273515,-0.478168 z"
     id="path32"
     style="stroke-width:0.0743652" />
  <path
     fill="#F8FBF9"
     d="m 29.717975,10.448042 c 0.326355,-0.2555 2.178291,-1.3033092 2.448771,-1.1050672 0.116584,0.06614 0.212123,0.112163 0.320588,0.177733 -0.939306,0.371082 -1.844331,0.8232232 -2.770921,1.2233072 -0.0014,-0.09965 -5.95e-4,-0.197142 0.0016,-0.295973 z"
     id="path34"
     style="fill:#ffffff;stroke-width:0.0743652"
     sodipodi:nodetypes="ccccc" />
  <path
     fill="#fcfdfb"
     d="m 41.475853,9.9683858 c 0.12419,-0.292998 0.406034,-0.471475 0.686316,-0.594177 0.09593,0.220864 0.196993,0.439498 0.291512,0.6618502 -0.192606,0.103367 -0.372644,0.255742 -0.330926,0.496759 0.111548,0.02826 0.228302,0.126421 0.346542,0.06618 0.704238,-0.283331 1.377318,-0.6380532 2.073301,-0.9399762 0.100468,0.233507 0.214172,0.4602462 0.307946,0.6968022 -0.506501,0.244661 -1.021777,0.471475 -1.528278,0.716137 -0.349442,0.14055 -0.712419,0.349516 -1.102018,0.275894 -0.597896,-0.09965 -1.006086,-0.824709 -0.744395,-1.3794742 z"
     id="path36"
     style="stroke-width:0.0743652" />
  <path
     fill="#ffffff"
     d="m 17.559269,11.517413 c 1.778889,-0.35844 3.214806,-1.7007322 5.042033,-1.8888752 -0.211271,0.8633792 -0.467013,1.7156042 -0.674492,2.5804712 -0.06247,0.270689 -0.05206,0.554021 -0.136088,0.820248 -0.475194,1.845 -0.713906,3.740568 -1.156379,5.593005 -0.119728,0.556177 -0.0528,1.131094 0.0528,1.684222 0.0528,0.36967 0.130882,0.738447 0.275151,1.084988 -0.609051,0.02618 -1.206947,0.233656 -1.725272,0.549708 -0.591203,0.348029 -1.035164,0.959162 -1.748326,1.073684 -0.8932,0.0647 -1.660574,-0.509401 -2.534365,-0.575512 -0.31687,-0.0016 -0.612025,0.156836 -0.931126,0.144194 0.058,-0.04313 0.116084,-0.08478 0.174832,-0.126421 0.446935,-0.234101 0.891564,-0.504939 1.40104,-0.577817 0.621619,-0.07065 1.247104,-0.114523 1.864261,-0.217147 0.337618,-0.06098 0.648539,-0.22012 0.905842,-0.445447 0.339105,-0.285562 0.8961,-0.347285 1.05078,-0.817273 0.03265,-0.334643 -0.03718,-0.874535 -0.455859,-0.919005 -0.356952,0.05116 -0.650695,0.289875 -0.925846,0.506427 -0.458089,0.360671 -0.87156,0.780834 -1.366088,1.093912 -0.222352,0.153341 -0.503452,0.108573 -0.757707,0.112291 -0.376362,-0.0059 -0.733984,-0.147912 -1.107372,-0.176246 -0.564431,0.05964 -1.103579,0.252247 -1.638265,0.433549 -0.409752,0.126421 -0.828428,0.264889 -1.262646,0.243249 -0.589716,-0.0171 -1.151916,-0.232019 -1.673216,-0.494528 0.35844,-0.0119 0.720598,0.02015 1.076807,-0.03867 1.20546,-0.173271 2.296397,-0.757781 3.470623,-1.047062 0.374801,-0.11006 0.778603,0.003 1.147455,-0.140625 0.55402,-0.191862 1.076064,-0.655231 1.151916,-1.262051 0.03793,-0.234994 -0.05503,-0.453628 -0.164347,-0.65367 -0.333156,-0.302592 -0.796451,-0.119579 -1.138605,0.06633 -0.987569,0.559226 -1.798819,1.377243 -2.779027,1.947475 -0.265409,0.150961 -0.568819,0.2402 -0.875947,0.227706 -0.656644,-0.01785 -1.285774,-0.226962 -1.931338,-0.327207 -0.5956649,-0.110804 -1.2032284,-0.08924 -1.805512,-0.06544 1.134069,-0.548815 2.427279,-0.491554 3.641663,-0.71398 0.444703,-0.08544 0.929564,-0.144194 1.29321,-0.436449 0.144268,-0.104111 0.149474,-0.295974 0.174015,-0.455115 -0.152449,-0.4276 -0.505684,-0.835121 -0.99047,-0.844788 -0.751832,0.0232 -1.3765,0.49899 -1.981088,0.892382 -0.417933,0.269945 -0.8404013,0.659619 -1.3765742,0.596483 -0.5495587,-0.07437 -1.0864009,-0.255742 -1.646445,-0.248454 l -0.048337,-0.03198 c -0.5391476,-0.0097 -1.0774771,0.04767 -1.6069571,0.146499 0.446191,-0.278869 0.896844,-0.569488 1.408402,-0.712418 0.6045889,-0.176171 1.2448731,-0.105599 1.8591294,-0.217147 1.0240829,-0.289875 1.6843709,-1.203823 2.5998059,-1.690915 0.273739,-0.133114 0.584511,-0.243918 0.891639,-0.176245 0.772654,0.124933 1.231487,0.878847 1.971421,1.082013 0.660362,0.162116 1.351215,-0.08849 1.885157,-0.475937 0.290024,-0.20153 0.527323,-0.49081 0.606076,-0.84107 -0.133114,-0.370339 -0.595665,-0.442473 -0.938489,-0.41057 -0.574768,0.05131 -0.91246,0.577891 -1.397321,0.820991 -0.72283,-0.07942 -1.250748,-0.629873 -1.914085,-0.863231 -0.426857,-0.107829 -0.922129,-0.05577 -1.268001,0.237076 -0.550972,0.443217 -1.128863,0.88792 -1.8197156,1.087963 -0.8024005,0.260284 -1.6686805,0.131037 -2.4524894,-0.132215 0.8195042,-0.08329 1.6509069,-0.258196 2.3610943,-0.694646 0.8708167,-0.518994 1.5185367,-1.441271 2.5626237,-1.638934 0.580792,-0.150961 1.154817,0.109317 1.653807,0.384468 0.315309,0.15758 0.658207,0.344311 1.022522,0.275003 0.549633,-0.124934 0.948155,-0.549559 1.411451,-0.838096 0.219377,-0.142037 0.516019,-0.154679 0.682672,-0.375544 0.139806,-0.116158 0.09296,-0.307128 0.104855,-0.4656 -0.142781,-0.158472 -0.336875,-0.283406 -0.559301,-0.240125 -0.722829,0.06247 -1.150429,0.766779 -1.823434,0.958567 -0.255816,0.05503 -0.49899,-0.06247 -0.737702,-0.136832 -0.396367,-0.137576 -0.811324,-0.239456 -1.234462,-0.220121 -0.387443,-0.01934 -0.75555,0.114522 -1.131913,0.180782 0.177064,-0.156837 0.351748,-0.324902 0.574174,-0.41652 0.527993,-0.239456 1.125889,-0.136832 1.679909,-0.259534 0.50494,-0.12419 0.891564,-0.490067 1.3237,-0.755476 0.451397,-0.307203 0.960798,-0.531637 1.498384,-0.635079 0.293743,-0.07169 0.600127,-0.05525 0.895357,-0.123669 z"
     id="path38"
     style="stroke-width:0.0743652" />
  <path
     fill="#EEFAF9"
     d="m 30.210272,11.490642 c 0.625412,-0.444704 1.227026,-0.951131 1.944575,-1.243386 -0.162116,0.183682 -0.345054,0.346616 -0.538329,0.494454 -0.737703,0.571273 -1.485742,1.12812 -2.251778,1.660574 0.153193,-0.399341 0.536991,-0.639466 0.845532,-0.911642 z"
     id="path40"
     style="fill:#ffffff;stroke-width:0.0743652" />
  <path
     fill="#fdfdfc"
     d="m 32.79528,10.960418 c 0.21261,-0.07437 0.442399,-0.09519 0.663338,-0.04313 0.01703,0.402316 -0.368852,0.63731 -0.625411,0.884946 -0.801583,0.63954 -1.73494,1.08707 -2.680121,1.470794 0.05577,-0.393392 0.189705,-0.768192 0.330107,-1.137043 0.743651,-0.440094 1.487303,-0.901232 2.312087,-1.175565 z"
     id="path42"
     style="stroke-width:0.0743652" />
  <path
     fill="#fbfefb"
     d="m 43.782735,11.979221 c 0.162785,-0.302072 0.518994,-0.420163 0.839583,-0.455859 0.620205,0.0088 0.971209,0.740677 0.828428,1.281238 -0.09667,0.369595 -0.455859,0.556995 -0.782991,0.687134 -0.05659,-0.20153 -0.10783,-0.404546 -0.159811,-0.60682 0.112292,-0.09452 0.323489,-0.135344 0.322745,-0.313077 0.0037,-0.107086 -0.01859,-0.211941 -0.02967,-0.317614 -0.104855,-0.03198 -0.210453,-0.06083 -0.316052,-0.08403 L 44.3845,12.344281 c -0.01562,0.438681 -0.04388,0.942282 -0.395548,1.256103 -0.257378,0.261765 -0.658207,0.255072 -0.995081,0.205247 -0.585997,-0.156166 -0.855943,-0.885689 -0.643928,-1.421044 0.150887,-0.326537 0.497429,-0.480473 0.816455,-0.597078 0.06626,0.216403 0.121216,0.435632 0.173271,0.655752 -0.167321,0.104112 -0.460246,0.183831 -0.413545,0.43816 -0.02752,0.133857 0.105599,0.196324 0.182121,0.279613 0.168883,-0.01785 0.38826,0.0082 0.490141,-0.162785 0.0876,-0.334123 0.03406,-0.700818 0.184351,-1.019026 z"
     id="path44"
     style="stroke-width:0.0743652" />
  <path
     fill="#010102"
     d="m 25.26655,15.25642 c 0.199373,-0.655752 0.844119,-1.039551 1.494814,-1.11994 0.518995,-0.03123 1.082832,0.04983 1.493253,0.394879 0.281844,0.216403 0.389599,0.570381 0.487092,0.896993 0.159216,0 0.319027,0.0037 0.478837,0.01487 0.02677,-0.420163 0.386699,-0.737703 0.760087,-0.874683 0.231201,-0.09444 0.451322,0.03718 0.653595,0.136088 0.171933,-0.08329 0.324233,-0.241687 0.531711,-0.212536 0.177807,-0.02015 0.35621,0.150813 0.525093,0.05057 0.250536,-0.139063 0.574768,-0.182195 0.825528,-0.01934 0.262434,0.122554 0.351673,0.420907 0.420089,0.678954 0.526505,-0.183682 1.157791,-0.222352 1.622573,0.137575 0.136089,-0.06023 0.270764,-0.124189 0.40529,-0.188887 0.09749,-0.449909 0.591947,-0.745139 1.033602,-0.62913 0.488505,0.104855 0.804557,0.721343 0.487092,1.148942 0.07593,0.260279 0.09675,0.538404 -0.003,0.796451 0.196399,0.194837 0.409827,0.430575 0.36372,0.73101 0.03644,0.406778 -0.264814,0.730266 -0.575512,0.944438 0.199299,0.30341 0.07652,0.667055 0.191788,0.992031 0.07518,0.312334 0.0171,0.673005 -0.234176,0.893944 -0.345129,0.368926 -0.892382,0.31449 -1.34824,0.397928 -0.08329,-0.05354 -0.166504,-0.107086 -0.249793,-0.158398 -0.464039,0.218485 -1.037394,0.258717 -1.46425,-0.06633 a 1.455847,1.455847 0 0 1 -0.591947,0.339253 c -0.226814,0.311442 -0.525688,0.623181 -0.921385,0.69234 -0.382311,0.01353 -0.648538,-0.33085 -0.716954,-0.677318 -0.383725,0.120472 -0.779273,0.06618 -1.152661,-0.06254 -0.326537,0.26184 -0.780016,0.292925 -1.167458,0.162785 -0.165835,0.323489 -0.399341,0.620206 -0.732646,0.783066 -0.710931,0.355391 -1.688015,0.236481 -2.198235,-0.408265 -0.426038,-0.525762 -0.356209,-1.348241 0.145756,-1.801125 -0.07437,-0.162859 -0.131701,-0.332486 -0.162785,-0.507914 -0.100468,-0.02975 -0.199968,-0.06031 -0.299023,-0.08924 -0.09519,0.04983 -0.190449,0.09965 -0.284818,0.150292 -0.503527,0.0016 -1.012854,-0.04982 -1.505895,0.08113 -0.139063,-0.09972 -0.304972,-0.175502 -0.396366,-0.32572 -0.08626,-0.153936 -0.06842,-0.334643 -0.0728,-0.503527 -0.644002,-0.188887 -0.853043,-1.088706 -0.406034,-1.56613 0.276713,-0.298279 0.705651,-0.34736 1.090119,-0.329587 0.243249,-0.11824 0.531042,-0.276638 0.79132,-0.09593 0.326538,0.142856 0.280431,0.548072 0.447753,0.807011 0.248454,0.16576 0.526505,-0.06767 0.794294,-0.06842 -0.539445,-0.282141 -0.689588,-0.971506 -0.559449,-1.525601 z"
     id="path46"
     style="stroke-width:0.0743652" />
  <path
     fill="#F9FCFA"
     d="m 26.484577,14.698012 c 0.43578,-0.129396 0.936332,-0.119728 1.334037,0.116753 0.420163,0.233507 0.556177,0.852968 0.268458,1.239667 -0.119728,0.159142 -0.319026,0.220865 -0.493859,0.295899 0.213428,0.562945 0.542866,1.200998 1.163146,1.382598 0.358366,0.09742 0.639615,-0.25656 0.987495,-0.223096 0.194019,0.0051 0.17922,0.247562 0.195581,0.385807 -0.321927,0.495272 -1.02096,0.581535 -1.523669,0.333899 -0.504195,-0.258047 -0.829097,-0.764474 -1.033006,-1.27685 -0.08106,-0.204504 -0.1465,-0.413619 -0.215585,-0.621693 -0.03205,0.0046 -0.09749,0.01264 -0.129395,0.0171 0.0075,0.123447 0.01569,0.247636 0.02454,0.371826 0.0789,0.03562 0.157654,0.07139 0.237151,0.107681 -0.02015,0.09147 -0.04164,0.183831 -0.06462,0.275151 -0.144194,0.252247 -0.362976,0.455115 -0.617305,0.593434 -0.0728,-0.06923 -0.164347,-0.122107 -0.212015,-0.212089 0.06031,-0.169404 0.194093,-0.312185 0.199968,-0.499734 0.01049,-0.322745 -0.03495,-0.644746 -0.029,-0.967491 0.0081,-0.191862 -0.128578,-0.340593 -0.229789,-0.487092 0.15758,-0.212684 0.426038,-0.175502 0.658801,-0.170296 0.02313,0.04016 0.04685,0.08031 0.07139,0.121215 -0.03205,0.170296 -0.04611,0.342675 -0.05206,0.515946 0.212015,-7.44e-4 0.470732,0.02677 0.608977,-0.173271 0.217146,-0.242431 0.01562,-0.61857 -0.26474,-0.702602 -0.431393,-0.146649 -1.053829,-0.03941 -1.226282,0.43801 0.07213,0.269946 0.338361,0.464039 0.320588,0.757782 -0.114522,0.04306 -0.235737,0.143524 -0.36134,0.07511 -0.351748,-0.181451 -0.47155,-0.639689 -0.357771,-0.998724 0.08894,-0.349962 0.404993,-0.598342 0.740305,-0.694942 z"
     id="path48"
     style="fill:#ffffff;stroke-width:0.0743652" />
  <path
     fill="#F4FAF9"
     d="m 31.963803,14.935236 c 0.114523,-0.04179 0.237969,-0.01413 0.356953,-0.01115 0.100468,0.179963 0.166578,0.455858 -0.02157,0.601614 -0.14873,0.05734 -0.368033,0.04834 -0.435705,-0.121959 -0.108573,-0.154679 -0.01049,-0.346542 0.100318,-0.468501 z"
     id="path50"
     style="fill:#ffffff;stroke-width:0.0743652" />
  <path
     fill="#F8FCF9"
     d="m 29.711282,15.395557 c 0.09593,-0.204504 0.310103,-0.313077 0.507096,-0.400085 0.267789,0.610538 0.113779,1.301391 0.234994,1.941675 0.06626,0.07808 0.142781,0.147987 0.216403,0.220865 0.0022,0.04016 0.0059,0.121215 0.0081,0.161372 -0.25946,0.122703 -0.553203,0.09073 -0.830659,0.07139 -0.0022,-0.04529 -0.0059,-0.136832 -0.0081,-0.182195 0.0528,-0.08106 0.106342,-0.162116 0.147169,-0.249718 -0.01049,-0.440242 -0.07065,-0.878402 -0.06254,-1.319239 -0.07117,-0.07972 -0.256336,-0.101359 -0.212461,-0.244066 z m 1.021108,-0.130883 c 0.153862,-0.13237 0.310921,-0.273664 0.51602,-0.316052 0.159216,0.354722 0.130139,0.753319 0.16814,1.132582 0.02826,0.334643 -0.0699,0.733835 0.20153,0.992775 h 0.270763 c 0.03562,-0.04239 0.106342,-0.126421 0.14122,-0.168065 0.0022,-0.224658 0.0022,-0.449166 -0.0082,-0.673154 -0.06619,-0.01636 -0.198555,-0.04819 -0.26474,-0.06455 0.06247,-0.268458 0.301922,-0.426112 0.539891,-0.524423 0.16219,0.377775 0.08544,0.799426 0.163603,1.195048 0.0795,0.08255 0.159811,0.165091 0.240869,0.247636 -0.003,0.03644 -0.0081,0.10783 -0.01041,0.143525 -0.2402,0.04477 -0.484192,0.0647 -0.728035,0.06767 -0.07593,-0.05726 -0.151705,-0.112291 -0.226888,-0.168809 -0.182121,0.336131 -0.625337,0.233507 -0.929565,0.167322 0.0647,-0.17922 0.214172,-0.337618 0.189705,-0.54004 -0.01487,-0.321927 -0.03718,-0.643854 -0.0528,-0.965855 -0.01116,-0.07734 -0.02082,-0.153936 -0.02908,-0.230681 -0.157505,-0.02729 -0.176914,-0.162562 -0.182046,-0.294932 z"
     id="path52"
     style="fill:#ffffff;stroke-width:0.0743652" />
  <path
     fill="#F6FAF7"
     d="m 35.497711,15.146434 c 0.153266,-0.291512 0.702751,-0.15468 0.622436,0.198555 -0.101136,0.174014 -0.306384,0.08924 -0.466344,0.09891 0.172453,0.233507 0.504122,0.447679 0.391979,0.783066 -0.133114,0.312185 -0.522787,0.337617 -0.806936,0.431318 -0.01487,0.03198 -0.04469,0.09593 -0.05957,0.128577 0.307203,0.157654 0.646977,-0.08924 0.955667,0.06098 0.150292,0.05206 0.206066,0.213428 0.268384,0.345055 -0.105599,0.514607 -0.683342,0.714649 -1.150429,0.678954 -0.198555,-0.03495 -0.461064,-0.06321 -0.564432,-0.260278 -0.09296,-0.179964 0.07734,-0.400829 0.269946,-0.365877 0.168065,0.117497 0.313077,0.267863 0.49899,0.360002 0.170296,-0.06462 0.478168,-0.09296 0.422394,-0.34736 -0.09214,-0.127908 -0.263996,-0.111548 -0.400828,-0.100393 -0.206066,0.01636 -0.412727,0.01636 -0.619462,0.0119 -0.05354,-0.05354 -0.106417,-0.107086 -0.159216,-0.159886 -7.44e-4,-0.06842 -7.44e-4,-0.136088 -7.44e-4,-0.202942 a 11.772751,11.772751 0 0 1 0.24838,-0.223096 c -0.09452,-0.107829 -0.238712,-0.191118 -0.263996,-0.342228 -0.05421,-0.168065 0.04172,-0.324084 0.10478,-0.472219 0.226888,-0.123446 0.475268,-0.192606 0.730266,-0.227557 -0.03622,-0.127091 -0.14107,-0.282514 -0.02127,-0.395474 z"
     id="path54"
     style="fill:#ffffff;stroke-width:0.0743652" />
  <path
     fill="#F8FBF9"
     d="m 33.509855,15.761359 c 0.179964,-0.113035 0.417858,-0.26474 0.625337,-0.124933 0.224657,0.152448 0.193424,0.449165 0.215659,0.684903 -0.0097,0.200786 0.206661,0.299022 0.220865,0.493785 -0.186657,0.198555 -0.37257,0.53409 -0.696802,0.414214 0.05875,-0.389674 0.164347,-0.814299 -0.02008,-1.186125 -0.113778,0.02915 -0.225326,0.05949 -0.338436,0.0885 -0.02967,0.156762 -0.08544,0.313821 -0.06328,0.475788 0.01941,0.216403 0.220939,0.339849 0.319844,0.519069 -0.258716,0.126421 -0.547253,0.127165 -0.827758,0.111548 l -0.116679,-0.143525 c 0.07139,-0.07437 0.143599,-0.147243 0.219377,-0.217221 0.02015,-0.06091 0.04172,-0.120397 0.06247,-0.180781 -0.03265,-0.160629 -0.04767,-0.323489 -0.05659,-0.486349 l -0.221534,-0.04164 c 0.0015,-0.114522 0.02967,-0.223914 0.07139,-0.328694 0.127165,-0.08552 0.253511,-0.172527 0.38365,-0.255221 0.08032,0.09087 0.135271,0.197067 0.188888,0.306384 0.0084,-0.0322 0.02558,-0.0969 0.03369,-0.129693 z"
     id="path56"
     style="fill:#ffffff;stroke-width:0.0743652" />
  <path
     fill="#030207"
     d="m 35.087141,16.067818 c 0.05652,-0.211197 0.301997,-0.196919 0.472888,-0.169552 a 1.1799522,1.1799522 0 0 1 0.13237,0.270094 c -0.119728,0.07213 -0.247636,0.127164 -0.376362,0.179964 -0.08983,-0.07377 -0.301031,-0.11839 -0.228896,-0.280506 z"
     id="path58"
     style="stroke-width:0.0743652" />
  <path
     fill="#F8FBF6"
     d="m 28.589855,15.972556 c 0.326538,-0.16048 0.772729,-0.05116 0.94362,0.281844 0.153936,0.335536 0.16219,0.783066 -0.116679,1.055986 -0.204504,0.22607 -0.55402,0.200786 -0.823148,0.135344 -0.566663,-0.248305 -0.574174,-1.223232 -0.0038,-1.473174 z"
     id="path60"
     style="fill:#ffffff;stroke-width:0.0743652" />
  <path
     fill="#152028"
     d="m 27.037854,16.348175 c 0.03205,-0.0046 0.09749,-0.01264 0.129396,-0.0171 0.06923,0.208222 0.134675,0.417188 0.215584,0.621693 -0.04982,0.04982 -0.09965,0.09965 -0.147912,0.150217 0.02313,-0.09139 0.04462,-0.183682 0.06462,-0.275151 -0.0795,-0.03629 -0.158398,-0.07213 -0.23715,-0.107681 -0.0088,-0.124338 -0.0171,-0.248528 -0.02454,-0.371974 z"
     id="path62"
     style="stroke-width:0.0743652" />
  <path
     fill="#020103"
     d="m 28.681325,16.35933 c 0.159215,-0.178328 0.490884,-0.06321 0.518994,0.170296 0.0238,0.192606 0.06098,0.458089 -0.14873,0.566662 -0.1465,0.02015 -0.343493,0.03793 -0.411983,-0.127908 -0.08991,-0.183682 -0.107681,-0.453702 0.04172,-0.60905 z"
     id="path64"
     style="stroke-width:0.0743652" />
  <path
     fill="#F2FAF9"
     d="m 24.022346,16.638199 c 0.107012,-0.119579 0.239531,-0.196324 0.403878,-0.163603 -8.18e-4,0.135344 0.02015,0.295973 -0.111548,0.380749 -0.116754,0.02826 -0.236556,0.03049 -0.354796,0.04105 0.01703,0.283926 0.01338,0.568745 0.03793,0.852225 0.05064,0.06321 0.10188,0.127164 0.153266,0.191788 -0.140624,0.190449 -0.284818,0.441059 -0.560713,0.419494 0.04908,-0.302072 0.21499,-0.641772 0.01048,-0.922129 -0.120471,0.188144 -0.437267,0.160629 -0.556177,-0.01398 -0.170296,-0.194093 -0.134675,-0.536173 0.08403,-0.681185 0.258568,-0.187772 0.598417,-0.07243 0.893646,-0.104409 z"
     id="path66"
     style="fill:#ffffff;stroke-width:0.0743652" />
  <path
     fill="#030408"
     d="m 23.211022,17.224122 c 0.03131,-0.120323 0.01115,-0.281844 0.153267,-0.333081 0.09593,-0.02015 0.193424,-0.02975 0.292329,-0.02975 0.0067,0.145012 0.01636,0.290767 0.02967,0.437267 -0.149474,-0.07288 -0.315383,-0.06321 -0.475268,-0.07444 z"
     id="path68"
     style="stroke-width:0.0743652" />
  <path
     fill="#F2F9F8"
     d="m 24.314676,16.855271 c 0.05421,0.02015 0.162785,0.05964 0.21789,0.07898 0.02752,0.154679 0.02908,0.313077 0.04097,0.470731 0.167322,-0.08492 0.33918,-0.11534 0.504121,-0.0067 0.01703,0.143525 0.03205,0.286901 0.04313,0.431318 0.04529,0.06381 0.09139,0.128578 0.13765,0.193945 a 5.7777279,5.7777279 0 0 1 -0.258716,0.284818 L 24.7863,18.266722 c 0.07808,-0.216403 0.138245,-0.468501 -0.0067,-0.673005 -0.06923,0.02454 -0.134675,0.05786 -0.199968,0.09073 0.0016,0.103367 0.0059,0.208222 0.01339,0.312333 0.0528,0.08626 0.107829,0.171784 0.16576,0.255668 -0.176989,0.02454 -0.355392,0.04016 -0.533942,0.04395 -0.0038,-0.02833 -0.01116,-0.08545 -0.01487,-0.114597 0.04611,-0.0705 0.09221,-0.139807 0.136088,-0.210305 -0.05421,-0.228301 -0.05064,-0.464038 -0.05124,-0.696801 -0.264963,-0.06165 -0.02997,-0.275821 0.01986,-0.41942 z"
     id="path70"
     style="fill:#ffffff;stroke-width:0.0743652" />
  <path
     fill="#F1FBF9"
     d="m 25.550551,17.307486 c 0.227631,-0.04521 0.539965,-0.02529 0.593359,0.256559 0.08924,0.321258 -0.339105,0.281101 -0.539891,0.290025 0.01049,0.03257 0.03205,0.09801 0.04313,0.130882 0.171858,-0.0037 0.330107,-0.07957 0.499734,-0.0989 0.05734,0.406033 -0.646903,0.467757 -0.757038,0.107085 -0.134526,-0.242504 -0.02737,-0.510888 0.160704,-0.685646 z"
     id="path72"
     style="fill:#ffffff;stroke-width:0.0743652" />
  <path
     fill="#61A6C3"
     d="m 25.505932,17.572969 c 0.139806,-0.04239 0.281026,-0.08106 0.424625,-0.113109 0.0261,0.262583 -0.299692,0.289355 -0.424625,0.113109 z"
     id="path74"
     style="fill:#000000;stroke-width:0.0743652" />
  <path
     fill="#F8FCF9"
     d="m 27.080242,17.993132 c 0.155424,0.02305 0.295899,-0.176245 0.442399,-0.06336 0.199373,0.167322 0.320588,0.434293 0.310921,0.695463 -0.06544,0.05421 -0.140625,0.09296 -0.214172,0.133858 -0.187475,-0.156316 -0.375619,-0.31977 -0.608977,-0.400085 a 25.001572,25.001572 0 0 0 -0.272176,0.09891 c -0.0119,0.111548 -0.136088,0.261022 0.01487,0.327802 0.386624,0.223987 0.858918,0.273812 1.21297,0.56458 0.209636,0.280357 0.282588,0.629873 0.249124,0.974779 -0.223096,0.85743 -1.424019,1.090193 -2.042812,0.522118 -0.386699,-0.319027 -0.390417,-1.053011 0.07511,-1.302283 0.243918,-0.150813 0.600127,-0.148731 0.785371,0.09296 -0.03421,0.08121 -0.0676,0.16286 -0.101063,0.244661 -0.16576,0.05667 -0.368851,0.06544 -0.483373,0.214172 -0.05734,0.20971 0.02752,0.459726 0.238712,0.545989 0.279613,0.123298 0.658801,0.09504 0.87974,-0.130139 0.249793,-0.284818 0.174833,-0.783809 -0.163603,-0.966003 -0.332413,-0.176246 -0.719855,-0.237225 -1.033602,-0.451397 -0.246223,-0.170296 -0.288537,-0.536173 -0.11073,-0.770274 0.172156,-0.273739 0.513492,-0.373388 0.821289,-0.331744 z"
     id="path76"
     style="fill:#ffffff;stroke-width:0.0743652" />
  <path
     fill="#F7FAF9"
     d="m 34.858096,18.366446 c 0.202942,-0.181303 0.507914,0 0.715393,-0.172528 0.03793,0 0.114522,-7.43e-4 0.152449,-7.43e-4 0.101062,0.15929 0.17922,0.332412 0.242504,0.511632 -0.215659,0.194093 -0.43511,-0.0045 -0.625411,-0.12419 -0.03421,0.0046 -0.104037,0.0119 -0.138245,0.01636 -8.18e-4,0.05801 -0.0016,0.116753 -8.18e-4,0.176245 0.244662,0.111548 0.543684,0.139807 0.737703,0.342229 0.147987,0.157654 0.04239,0.371826 -7.44e-4,0.551789 -0.19558,0.168066 -0.445447,0.214172 -0.695983,0.169479 -0.08998,0.04395 -0.18517,0.130139 -0.291586,0.08485 -0.176989,-0.14873 -0.291512,-0.368107 -0.284001,-0.601614 0.269946,-0.142038 0.478243,0.121215 0.718368,0.202942 0.176989,0.07139 0.13765,-0.147912 0.158398,-0.243174 -0.252173,-0.08106 -0.507915,-0.156315 -0.744396,-0.277382 l -0.107011,-0.172378 c -0.0031,-0.168363 0.03027,-0.348252 0.16338,-0.463518 z"
     id="path78"
     style="fill:#ffffff;stroke-width:0.0743652" />
  <path
     fill="#F8FCF9"
     d="m 31.911004,18.617056 c 0.206066,-0.121959 0.459651,-0.254329 0.695389,-0.121959 0.454297,0.255668 0.509401,0.945182 0.216328,1.34363 -0.144938,0.228301 -0.48791,0.295974 -0.704238,0.131701 -0.127165,-0.06544 -0.13765,-0.273812 -0.0238,-0.356209 0.106417,-0.01562 0.21499,-0.02231 0.324232,-0.02082 0.173271,-0.166578 0.21789,-0.398598 0.104781,-0.613513 l -0.166504,-0.11601 c -0.159216,0.0015 -0.36134,0.0409 -0.397928,0.22607 -0.02751,0.24838 -0.0089,0.499734 8.18e-4,0.749527 -0.0038,0.143599 0.142781,0.214246 0.208966,0.326538 0.03428,0.116604 -0.07808,0.196324 -0.136832,0.280356 -0.143599,0.137725 -0.296642,0.339849 -0.522118,0.279762 -0.09072,-0.204504 0.03718,-0.417189 0.03123,-0.626155 -0.01339,-0.335535 -0.05734,-0.668543 -0.04826,-1.00393 -0.07221,-0.0351 -0.144194,-0.06931 -0.21499,-0.103516 -0.0067,-0.04164 -0.02015,-0.124933 -0.02603,-0.166578 0.145756,-0.157505 0.304897,-0.334643 0.533942,-0.352342 0.03131,0.03562 0.09378,0.107681 0.125008,0.14345 z"
     id="path80"
     style="fill:#ffffff;stroke-width:0.0743652" />
  <path
     fill="#F8FBF9"
     d="m 33.39392,18.535998 c 0.304972,-0.30802 0.910973,-0.249272 1.102018,0.159142 0.07518,0.158398 0.122033,0.432805 -0.07734,0.516838 -0.246818,0.128577 -0.528662,0.09073 -0.79489,0.09296 0.0068,0.03793 0.02157,0.115266 0.02908,0.153192 0.293743,0.217147 0.568224,-0.09072 0.875353,-0.08031 0.0059,0.09296 0.02528,0.187475 0.01346,0.281844 -0.109986,0.196473 -0.349517,0.243249 -0.544353,0.313077 -0.369595,0.0052 -0.74209,-0.23187 -0.80017,-0.613512 -0.08574,-0.284968 -0.0084,-0.607638 0.196845,-0.823223 z"
     id="path82"
     style="fill:#ffffff;stroke-width:0.0743652" />
  <path
     fill="#F9FDF8"
     d="m 29.880909,18.81338 c 0.1874,-0.284818 0.577074,-0.301922 0.873791,-0.21551 0.368851,0.136088 0.440985,0.577074 0.429756,0.92198 -0.0647,0.201529 -0.147986,0.429161 -0.353234,0.528141 -0.198555,0.11601 -0.433549,0.07139 -0.651514,0.07942 -0.475119,-0.23425 -0.624593,-0.899075 -0.298799,-1.314033 z"
     id="path84"
     style="fill:#ffffff;stroke-width:0.0743652" />
  <path
     fill="#F7FCF8"
     d="m 28.588368,18.782816 c 0.13765,-0.121959 0.324232,-0.151556 0.494454,-0.200637 0.156911,0.05488 0.336874,0.08626 0.457346,0.210453 0.08998,0.121216 0.06619,0.309211 -0.07518,0.382832 -0.202943,-0.0818 -0.403803,-0.190969 -0.629873,-0.156166 -0.127165,0.225326 -0.183757,0.560713 0.0528,0.736066 0.252767,0.12419 0.49081,-0.130883 0.751758,-0.09072 0.0051,0.13237 0.06767,0.313077 -0.07816,0.395622 -0.197737,0.188888 -0.493041,0.199894 -0.745809,0.147913 -0.559672,-0.20272 -0.6765,-1.054945 -0.227334,-1.425358 z"
     id="path86"
     style="fill:#ffffff;stroke-width:0.0743652" />
  <path
     fill="#03080a"
     d="m 33.678739,18.739015 c 0.189631,-0.04313 0.467757,-0.08909 0.481812,0.184426 -0.199968,0.05726 -0.406852,0.08537 -0.614331,0.09593 0.04254,-0.09444 0.08708,-0.1874 0.132519,-0.280357 z"
     id="path88"
     style="stroke-width:0.0743652" />
  <path
     fill="#040304"
     d="m 30.257123,18.9517 c 0.12642,-0.058 0.266227,-0.01636 0.397928,7.43e-4 0.09749,0.187475 0.174832,0.404547 0.08924,0.613513 -0.07734,0.258047 -0.499809,0.263996 -0.587485,0.0067 -0.03056,-0.206735 -0.07511,-0.464857 0.100319,-0.620949 z"
     id="path90"
     style="stroke-width:0.0743652" />
  <path
     fill="#ffffff"
     d="m 43.51569,21.114239 c 0.525761,-0.120472 0.907255,-0.531711 1.313289,-0.845532 0.73614,0.0766 1.436065,0.424625 1.951267,0.954105 0.450728,0.502709 0.7615,1.161584 0.732572,1.847975 0.04231,0.911791 -0.439424,1.788631 -1.140762,2.348452 -1.185307,0.97344 -3.059458,0.993519 -4.229148,-0.01703 -0.692414,-0.577892 -1.085805,-1.507456 -0.972696,-2.406457 0.05734,-0.546584 0.287793,-1.063422 0.62028,-1.497714 0.577743,-0.113854 1.149686,-0.258196 1.725198,-0.383799 z"
     id="path92"
     style="stroke-width:0.0743652" />
  <path
     fill="#fafcfa"
     d="m 9.4691559,21.743368 c 0.2164027,0.216403 0.4283434,0.437267 0.6484641,0.649952 0.159885,0.136832 0.18517,0.357696 0.258717,0.544204 1.060521,2.998404 2.891318,5.718682 5.271821,7.829166 2.120895,1.888875 4.66939,3.300326 7.406028,4.067775 3.118206,0.882715 6.466052,0.942207 9.611699,0.159736 4.458936,-1.079038 8.463575,-3.87502 11.047765,-7.660356 0.218559,-0.02529 0.438085,-0.04908 0.658801,-0.05875 -2.628884,4.035873 -6.809545,7.040151 -11.490163,8.193704 -1.125145,0.293594 -2.279293,0.4685 -3.437828,0.545022 -1.587027,0.105673 -3.185879,0.01108 -4.750522,-0.272102 C 21.61232,35.186063 18.67787,33.852101 16.218539,31.916375 12.959783,29.36208 10.53994,25.747189 9.4691559,21.743368 Z"
     id="path94"
     style="stroke-width:0.0743652" />
  <path
     fill="#ffffff"
     d="m 39.015853,22.014057 c 0.09452,-0.01101 0.192606,-0.04611 0.289355,-0.02231 0.577892,0.469988 0.99047,1.148198 1.082757,1.893337 0.229862,1.45607 -0.815043,2.912884 -2.198904,3.325611 -0.934101,0.30341 -2.007042,0.178476 -2.822902,-0.377775 -0.639615,-0.415702 -1.113321,-1.08417 -1.26577,-1.834589 -0.177807,-0.752427 -0.0022,-1.570444 0.417932,-2.213108 0.05124,-0.110804 0.185095,-0.09667 0.285563,-0.116009 1.40922,-0.183757 2.811673,-0.414214 4.211969,-0.655158 z m -19.468059,2.394559 c 0.304971,-0.948156 1.05078,-1.775097 2.01009,-2.081481 0.131627,0.408265 0.453628,0.736215 0.864867,0.864867 0.904207,0.307202 1.876159,0.183831 2.813979,0.211346 0.460989,0.680292 0.701338,1.537128 0.528067,2.352914 -0.243918,1.447146 -1.613725,2.586421 -3.076488,2.584933 -1.06424,0.05206 -2.131305,-0.481142 -2.729201,-1.363113 -0.513938,-0.740157 -0.65367,-1.704599 -0.411314,-2.569466 z m 8.055235,-1.068627 c 1.562487,-0.07065 3.124899,-0.182939 4.678314,-0.371826 0.550228,0.558482 0.903462,1.325931 0.871559,2.118664 -0.0081,0.932539 -0.521299,1.821203 -1.278263,2.35217 -0.712344,0.508658 -1.641165,0.709444 -2.498744,0.520556 -1.111685,-0.219377 -2.058428,-1.103579 -2.320937,-2.21162 -0.06916,-0.496016 -0.07585,-1.010623 0.07362,-1.493253 0.111622,-0.327207 0.288537,-0.62556 0.474449,-0.914691 z"
     id="path96"
     style="stroke-width:0.0743652" />
  <path
     fill="#fafcfb"
     d="m 17.913322,23.963169 c 0.115266,-0.05786 0.232019,-0.11363 0.349441,-0.170297 -0.263996,0.63969 -0.338361,1.336491 -0.303335,2.02199 a 18.416536,18.416536 0 0 1 -1.273132,-1.655369 c 0.418676,0.0171 0.83579,-0.04165 1.227026,-0.196324 z"
     id="path98"
     style="stroke-width:0.0743652" />
  <path
     fill="#fbfdfb"
     d="m 14.569045,26.420194 c 0.603102,-0.375544 1.169764,-0.809093 1.777328,-1.178688 0.143525,0.210454 0.284819,0.422394 0.414958,0.641772 -0.548072,0.356952 -1.084245,0.730266 -1.632316,1.085731 -0.258716,0.157654 -0.545097,0.322001 -0.860405,0.28348 -0.559895,-0.01859 -1.007648,-0.595665 -0.921385,-1.141654 0.06172,-0.335387 0.300436,-0.629873 0.611282,-0.768936 0.120472,0.191119 0.259535,0.369595 0.375619,0.563688 -0.108573,0.159885 -0.336205,0.306385 -0.236556,0.528142 0.119802,0.169403 0.330256,0.06678 0.471475,-0.01354 z"
     id="path100"
     style="stroke-width:0.0743652" />
  <path
     fill="#fcfdfb"
     d="m 16.252004,27.053116 c 0.236481,-0.221013 0.505683,-0.486423 0.858917,-0.446191 0.537586,0.0728 0.976415,0.546584 1.061191,1.075246 0.02752,0.323563 -0.17104,0.608977 -0.412726,0.803218 -0.534686,0.47445 -1.029214,0.994263 -1.582491,1.44789 -0.138245,-0.141294 -0.278052,-0.280431 -0.415702,-0.42165 0.254329,-0.339105 0.597896,-0.601614 0.911717,-0.883458 -0.154679,-0.190524 -0.319026,-0.371826 -0.486348,-0.549708 -0.334643,0.254403 -0.618644,0.567555 -0.938414,0.838839 -0.145012,-0.129395 -0.281844,-0.266971 -0.417932,-0.40529 -0.003,-0.02662 -0.0089,-0.0818 -0.01264,-0.109317 0.466864,-0.461733 0.968086,-0.887994 1.43443,-1.349579 z"
     id="path102"
     style="stroke-width:0.0743652" />
  <path
     fill="#ffffff"
     d="m 29.147594,29.150735 c 1.699914,0.218633 3.483339,-0.719112 4.243351,-2.260553 0.487092,0.658875 1.189843,1.148124 1.970678,1.393603 -0.0022,0.01562 -0.0081,0.04759 -0.01108,0.06321 -2.625909,1.618186 -5.801302,2.326142 -8.862916,1.934238 -1.159353,-0.145756 -2.30532,-0.432657 -3.385772,-0.880484 1.255284,-0.25061 2.35812,-1.109528 2.940399,-2.245828 0.643185,1.106628 1.833027,1.86731 3.105341,1.995813 z"
     id="path104"
     style="stroke-width:0.0743652" />
  <path
     fill="#020304"
     d="m 16.949549,27.334142 c 0.283331,-0.01859 0.60972,0.246298 0.496016,0.548815 -0.09965,0.118389 -0.222352,0.215064 -0.33918,0.316052 -0.173271,-0.167322 -0.341336,-0.3397 -0.499734,-0.5213 a 51.522424,51.522424 0 0 1 0.342898,-0.343567 z"
     id="path106"
     style="stroke-width:0.0743652" />
  <path
     fill="#fbfdfb"
     d="m 18.889736,27.978145 c 0.175428,0.116158 0.34208,0.245405 0.511633,0.371082 -0.223096,0.5213 -0.434293,1.048549 -0.67598,1.561668 -0.0082,0.04819 -0.0261,0.14412 -0.03503,0.191863 0.474524,-0.414214 0.971953,-0.800244 1.458301,-1.200403 0.160629,0.133114 0.326463,0.259534 0.496016,0.381568 -0.844714,0.713236 -1.714861,1.396503 -2.566342,2.102972 -0.160629,-0.121958 -0.322745,-0.240943 -0.486348,-0.35844 0.425368,-1.020141 0.870816,-2.030764 1.297746,-3.05031 z"
     id="path108"
     style="stroke-width:0.0743652" />
  <path
     fill="#fbfdf9"
     d="m 34.411905,30.157862 c 0.59336,-0.331817 1.16969,-0.692488 1.749143,-1.047062 0.119654,0.185913 0.234176,0.375545 0.336874,0.572464 -0.188143,0.114522 -0.385286,0.214246 -0.564506,0.342228 0.01643,0.09742 0.06923,0.182195 0.119059,0.266971 0.376362,0.625411 0.7644,1.244873 1.12812,1.879208 0.01703,0.0119 0.05206,0.03569 0.06923,0.04774 a 9.9474576,9.9474576 0 0 0 -0.556177,0.348623 c -0.497429,-0.698883 -0.883459,-1.470794 -1.355603,-2.186931 -0.20153,0.117349 -0.398598,0.242431 -0.60682,0.348029 -0.10664,-0.191341 -0.214469,-0.380972 -0.319324,-0.571273 z"
     id="path110"
     style="stroke-width:0.0743652" />
  <path
     fill="#fbfdfa"
     d="m 21.091615,29.826863 c 0.60087,-0.176989 1.337829,0.203612 1.487303,0.825453 0.06031,0.328694 -0.138988,0.617231 -0.276638,0.897588 -0.281919,0.571719 -0.581536,1.133176 -0.87156,1.700731 -0.194837,-0.08552 -0.382981,-0.184425 -0.568894,-0.286454 0.186731,-0.379263 0.38075,-0.754063 0.569638,-1.131838 -0.220121,-0.111548 -0.431318,-0.246223 -0.667725,-0.321258 -0.174833,0.367364 -0.380006,0.720004 -0.54889,1.090937 -0.202942,-0.05652 -0.390417,-0.153787 -0.57923,-0.243174 0.01405,-0.17104 0.08998,-0.325719 0.170222,-0.473706 0.257378,-0.510889 0.530298,-1.013597 0.780834,-1.528204 0.101881,-0.227483 0.255147,-0.451992 0.50494,-0.530075 z"
     id="path112"
     style="stroke-width:0.0743652" />
  <path
     fill="#020304"
     d="m 21.258193,30.548279 c 0.04239,-0.01651 0.125677,-0.04834 0.167321,-0.0647 0.198555,0.04164 0.490067,0.130139 0.486349,0.379857 -0.04826,0.158398 -0.137576,0.300435 -0.214916,0.446191 -0.220121,-0.10783 -0.440242,-0.21551 -0.655231,-0.333751 a 11.170319,11.170319 0 0 1 0.216477,-0.4276 z"
     id="path114"
     style="stroke-width:0.0743652" />
  <path
     fill="#fcfefc"
     d="m 32.133356,30.966881 c 0.525092,-0.145012 1.045649,-0.561606 1.608593,-0.352491 0.541304,0.155423 0.84925,0.837352 0.591129,1.342291 -0.163529,0.329438 -0.490067,0.528737 -0.826123,0.646234 0.139807,0.371826 0.292924,0.739041 0.417932,1.116965 -0.181376,0.07957 -0.365876,0.150292 -0.545096,0.232763 -0.04469,0.0016 -0.08924,0.003 -0.133114,0.0052 -0.297461,-0.757781 -0.580866,-1.520768 -0.874535,-2.280036 -0.09006,-0.233507 -0.203091,-0.461064 -0.238786,-0.710931 z"
     id="path116"
     style="stroke-width:0.0743652" />
  <path
     fill="#fafcf9"
     d="m 23.557564,30.789148 c 0.353235,-0.104855 0.745808,-0.0296 1.051598,0.17104 0.328694,0.25656 0.392574,0.728035 0.273664,1.108041 -0.194019,-0.04982 -0.386625,-0.104111 -0.575512,-0.168065 -0.02015,-0.15929 0.01405,-0.383724 -0.161373,-0.467757 -0.106416,-0.07734 -0.240943,-0.05354 -0.362158,-0.06172 -0.03718,0.08998 -0.07362,0.181376 -0.109391,0.27292 0.333899,0.296717 0.786783,0.499734 0.957079,0.945181 0.188888,0.573356 -0.221533,1.244873 -0.812811,1.357908 -0.08708,-0.0021 -0.172527,-0.003 -0.258121,-0.003 -0.305567,-0.07645 -0.647721,-0.184351 -0.812886,-0.477425 -0.176171,-0.283926 -0.12419,-0.63426 -0.07734,-0.947263 0.217964,0.04685 0.436524,0.09586 0.646233,0.174758 0.0148,0.210453 -0.0097,0.438755 0.148731,0.605333 0.07726,0 0.231201,8.92e-4 0.307872,8.92e-4 0.100467,-0.139955 0.224657,-0.297461 0.200786,-0.479655 -0.235738,-0.319771 -0.65962,-0.446192 -0.861149,-0.797344 -0.18212,-0.436821 -0.0036,-1.034568 0.444778,-1.233867 z"
     id="path118"
     style="stroke-width:0.0743652" />
  <path
     fill="#fbfefa"
     d="m 30.918973,31.169898 c 0.235737,-0.04982 0.471475,-0.100988 0.710187,-0.134601 0.216328,1.045574 0.399341,2.097841 0.621024,3.142672 -0.194019,0.04611 -0.388856,0.08775 -0.585998,0.118984 -0.0238,0.01487 -0.07221,0.04477 -0.09593,0.06039 -0.09675,-0.26184 -0.13237,-0.539148 -0.188888,-0.809986 -0.153266,-0.792732 -0.310102,-1.583978 -0.460394,-2.377454 z"
     id="path120"
     style="stroke-width:0.0743652" />
  <path
     fill="#020204"
     d="m 33.033175,31.384888 c 0.19268,-0.07957 0.397184,-0.136981 0.607563,-0.09221 0.08247,0.147986 0.145012,0.322745 0.06983,0.48843 -0.125603,0.122703 -0.300361,0.171189 -0.465526,0.215064 -0.07206,-0.203835 -0.149325,-0.405364 -0.211866,-0.611281 z"
     id="path122"
     style="stroke-width:0.0743652" />
  <path
     fill="#fcfefd"
     d="m 25.753568,31.735817 c 0.345128,-0.539148 1.219588,-0.613513 1.659161,-0.147243 0.133932,0.129395 0.195655,0.309359 0.271359,0.475342 -7.44e-4,0.168809 -0.0015,0.338361 -0.0045,0.508658 -0.220939,0.008 -0.44173,-0.01264 -0.661181,-0.03495 -0.0022,-0.113779 -0.0051,-0.227706 -0.0045,-0.339849 -0.145013,-0.157654 -0.368108,-0.249272 -0.573356,-0.154679 -0.182195,0.129395 -0.150292,0.374057 -0.191862,0.567406 -0.03198,0.316052 -0.109317,0.627642 -0.106342,0.948156 0.02744,0.0409 0.08403,0.122703 0.111547,0.163603 0.169479,0.09965 0.358366,0.07734 0.530224,-0.0052 0.04759,-0.113035 0.09511,-0.225327 0.141963,-0.337618 0.217965,0.0238 0.435111,0.05801 0.65367,0.08195 -7.43e-4,0.326463 -0.109986,0.69591 -0.417114,0.860257 -0.478243,0.25879 -1.166715,0.218633 -1.511844,-0.241687 -0.278051,-0.305492 -0.211197,-0.746627 -0.14122,-1.117634 0.08857,-0.407001 0.08411,-0.839063 0.243993,-1.226505 z"
     id="path124"
     style="stroke-width:0.0743652" />
  <path
     fill="#fdfefc"
     d="m 28.198695,31.431663 c 0.417114,-0.05875 0.838764,-0.08849 1.260415,-0.08849 0.21499,-0.0074 0.409008,0.09519 0.594178,0.193349 0.304153,0.372718 0.359927,0.921533 0.130139,1.345415 -0.07437,0.147838 -0.20971,0.253436 -0.287794,0.398448 0.176246,0.41362 0.445448,0.781727 0.650696,1.18315 -0.238712,0.0037 -0.475863,0.02618 -0.713162,0.04172 -0.266228,-0.399266 -0.478243,-0.833559 -0.773398,-1.212226 0.0038,0.425517 0.07734,0.846275 0.08626,1.272388 -0.225326,0.01933 -0.449165,0.05057 -0.675235,0.05801 -0.02826,-0.227707 -0.03562,-0.457346 -0.06247,-0.684904 -0.04469,-0.545914 -0.09452,-1.091829 -0.143599,-1.637595 -0.03324,-0.289206 -0.0467,-0.579231 -0.06604,-0.869255 z"
     id="path126"
     style="stroke-width:0.0743652" />
  <path
     fill="#010204"
     d="m 28.955732,32.012455 c 0.230606,-0.06975 0.467013,-0.029 0.665568,0.104111 0.0267,0.08909 0.05496,0.179964 0.08329,0.269946 -0.05659,0.106342 -0.100467,0.234102 -0.213428,0.29523 -0.151705,0.04462 -0.307946,0.0699 -0.464038,0.09519 -0.05131,-0.252172 -0.06916,-0.507914 -0.07139,-0.764474 z"
     id="path128"
     style="stroke-width:0.0743652" />
</svg>
