<?xml version="1.0" encoding="UTF-8" standalone="no"?>
<svg
   xmlns:dc="http://purl.org/dc/elements/1.1/"
   xmlns:cc="http://creativecommons.org/ns#"
   xmlns:rdf="http://www.w3.org/1999/02/22-rdf-syntax-ns#"
   xmlns:svg="http://www.w3.org/2000/svg"
   xmlns="http://www.w3.org/2000/svg"
   xmlns:xlink="http://www.w3.org/1999/xlink"
   xmlns:sodipodi="http://sodipodi.sourceforge.net/DTD/sodipodi-0.dtd"
   xmlns:inkscape="http://www.inkscape.org/namespaces/inkscape"
   inkscape:version="1.0 (4035a4fb49, 2020-05-01)"
   height="52.916668mm"
   width="146.84375mm"
   sodipodi:docname="rs_school_js.svg"
   version="1.1"
   viewBox="0 0 555.00001 200"
   id="Layer_1">
  <metadata
     id="metadata83">
    <rdf:RDF>
      <cc:Work
         rdf:about="">
        <dc:format>image/svg+xml</dc:format>
        <dc:type
           rdf:resource="http://purl.org/dc/dcmitype/StillImage" />
        <dc:title>rs_school_js</dc:title>
      </cc:Work>
    </rdf:RDF>
  </metadata>
  <sodipodi:namedview
     inkscape:current-layer="Layer_1"
     inkscape:window-maximized="1"
     inkscape:window-y="-8"
     inkscape:window-x="-8"
     inkscape:cy="299.2505"
     inkscape:cx="399.36162"
     inkscape:zoom="0.86853386"
     fit-margin-bottom="0"
     fit-margin-right="0"
     fit-margin-left="0"
     fit-margin-top="0"
     units="mm"
     showgrid="false"
     id="namedview81"
     inkscape:window-height="1092"
     inkscape:window-width="1920"
     inkscape:pageshadow="2"
     inkscape:pageopacity="0"
     guidetolerance="10"
     gridtolerance="10"
     objecttolerance="10"
     borderopacity="1"
     bordercolor="#666666"
     pagecolor="#ffffff" />
  <style
     id="style2">.st0{fill:#fff}.st1{clip-path:url(#SVGID_2_)}.st2{clip-path:url(#SVGID_4_)}.st3{clip-path:url(#SVGID_6_)}.st4{clip-path:url(#SVGID_8_)}.st5{fill:#fff;stroke:#000;stroke-width:4;stroke-miterlimit:10}.st6{clip-path:url(#SVGID_8_)}.st6,.st7{fill:none;stroke:#000;stroke-width:4;stroke-miterlimit:10}.st8,.st9{clip-path:url(#SVGID_10_)}.st9{fill:none;stroke:#000;stroke-width:4;stroke-miterlimit:10}</style>
  <title
     id="title4">rs_school_js</title>
  <path
     style="stroke-width:1.00497"
     id="path6"
     d="m 286.53579,61.77062 26.40468,-1.71026 c 0.60236,4.325956 1.70682,7.545276 3.51392,9.85916 2.91155,3.621732 6.92745,5.432592 12.24859,5.432592 3.9155,0 7.02784,-0.905436 9.13624,-2.816896 2.00789,-1.50906 3.21274,-3.923544 3.21274,-6.43864 0,-2.414484 -1.10445,-4.728368 -3.01195,-6.237416 -2.008,-1.810872 -6.72666,-3.621732 -14.1562,-5.231392 -12.14808,-2.716296 -20.88275,-6.338028 -26.00298,-10.965796 -5.12035,-4.325956 -8.03191,-10.663984 -7.83112,-17.404424 0,-4.627768 1.40564,-9.255536 4.0159,-13.078468 3.01195,-4.325956 7.12836,-7.746488 12.0478,-9.657948 C 311.43455,1.2072432 318.86397,0 328.20101,0 c 11.44531,0 20.17998,2.1126756 26.20388,6.438628 6.02378,4.225356 9.6381,11.066408 10.74256,20.422544 l -26.10349,1.509048 c -0.70276,-4.024144 -2.10841,-6.941652 -4.41748,-8.853112 -2.30919,-1.911472 -5.32114,-2.816908 -9.23664,-2.816908 -3.21273,0 -5.62232,0.704224 -7.22863,2.012072 -1.50603,1.207248 -2.50998,3.018108 -2.40958,5.03018 0,1.50906 0.80315,2.917508 2.008,3.822944 1.30513,1.207236 4.41748,2.313884 9.33692,3.31992 12.14819,2.615696 20.78247,5.23138 26.10349,7.947676 5.32114,2.716308 9.13624,6.036228 11.44543,9.95976 2.40947,4.024144 3.61432,8.651912 3.51393,13.380292 0,5.633792 -1.60643,11.267596 -4.81917,15.995976 -3.31314,4.929568 -7.9314,8.752512 -13.35293,11.066396 -5.72272,2.515084 -12.95135,3.822932 -21.58551,3.822932 -15.26054,0 -25.8023,-2.917508 -31.72581,-8.853112 C 290.75247,78.26962 287.23855,70.824944 286.53579,61.77062 Z M 6.325072,91.5493 V 1.6096576 h 46.283463 c 8.533831,0 15.160098,0.7042252 19.678,2.2132744 4.417519,1.40846 8.333031,4.325956 10.94338,8.2495 2.911544,4.325956 4.317113,9.356136 4.216719,14.587528 0.301195,8.853124 -4.216719,17.303824 -11.94736,21.73038 -3.011938,1.71026 -6.325072,2.917508 -9.7386,3.521132 2.509943,0.704224 5.019898,1.91146 7.228646,3.31992 1.706775,1.408448 3.112344,3.018108 4.417519,4.728368 1.505963,1.71026 2.811138,3.621732 3.915512,5.633804 L 94.775685,91.6499 H 63.25072 L 48.391816,63.983904 C 46.484263,60.462772 44.877894,58.148888 43.371919,57.042252 41.36396,55.633804 38.954411,54.92958 36.544863,54.92958 H 34.135315 V 91.448688 H 6.325072 Z M 34.135315,38.028168 h 11.746558 c 2.509943,-0.201212 4.919503,-0.603624 7.329052,-1.207248 1.807158,-0.3018 3.413528,-1.307836 4.517914,-2.816896 2.710743,-3.621732 2.309142,-8.752512 -1.00398,-11.871232 -1.80717,-1.509048 -5.321092,-2.313884 -10.341002,-2.313884 H 34.135315 Z M 0,168.61172 26.404662,166.9014 c 0.60239,4.32592 1.706776,7.54524 3.513934,9.85916 2.811138,3.62172 6.927462,5.53324 12.248554,5.53324 3.915524,0 7.027857,-0.90552 9.13621,-2.81692 2.007959,-1.60972 3.212739,-3.92352 3.212739,-6.43864 0,-2.41452 -1.104373,-4.72844 -3.011938,-6.23744 -2.007959,-1.81092 -6.726661,-3.62172 -14.256514,-5.23144 -12.14816,-2.7162 -20.88278,-6.33792 -26.003072,-10.96576 -5.1202989,-4.32592 -8.0318394,-10.66396 -7.8310435,-17.4044 0,-4.62772 1.4055712,-9.25556 4.0159179,-13.07848 3.0119346,-4.32592 7.1282596,-7.74644 12.0477626,-9.65796 5.321092,-2.31392 12.750538,-3.52112 22.087548,-3.52112 11.445364,0 20.179996,2.11272 26.203873,6.43864 6.023877,4.32592 9.5378,11.06636 10.642185,20.42252 l -26.103478,1.50912 c -0.702785,-4.02424 -2.108354,-6.94164 -4.417508,-8.85316 -2.208759,-1.91152 -5.321092,-2.81692 -9.236616,-2.71632 -3.212727,0 -5.622287,0.7042 -7.228657,2.11272 -1.606357,1.2072 -2.509943,3.01812 -2.409548,5.03012 0,1.50912 0.803191,2.91752 2.007959,3.82292 1.305174,1.20732 4.417519,2.31392 9.33701,3.31992 12.14816,2.61572 20.782386,5.23144 26.103479,7.94776 5.321092,2.71632 9.13621,6.03624 11.445364,9.95976 2.409548,4.02412 3.614328,8.65184 3.614328,13.27968 0,5.63372 -1.706764,11.16696 -4.819097,15.8954 -3.313133,4.92952 -7.931441,8.75244 -13.35294,11.06636 C 57.628432,198.6922 50.399787,200 41.765561,200 26.505068,200 15.963277,197.08248 10.039795,191.14684 4.1163171,185.11072 0.80318371,177.66596 0,168.61172 Z" />
  <path
     style="stroke-width:1.00497"
     id="path8"
     d="m 133.52928,161.56936 24.29628,7.34416 c -1.30513,6.13684 -4.0159,11.97176 -7.73061,17.1026 -3.41353,4.52712 -7.93139,8.04824 -13.05174,10.36216 -5.22063,2.31392 -11.8469,3.52112 -19.8788,3.52112 -9.73862,0 -17.770417,-1.4084 -23.8947,-4.22532 -6.224666,-2.81692 -11.545758,-7.84716 -16.063672,-14.99 -4.517901,-7.14284 -6.726661,-16.2978 -6.726661,-27.46476 0,-14.8894 3.915523,-26.35816 11.846953,-34.3058 7.931442,-7.94776 19.07556,-11.97188 33.53295,-11.97188 11.34492,0 20.17998,2.31392 26.70586,6.84104 6.42547,4.62784 11.24452,11.67008 14.45726,21.12672 l -24.49706,5.43264 c -0.60237,-2.11272 -1.50603,-4.22532 -2.71077,-6.03624 -1.50591,-2.1126 -3.41352,-3.72232 -5.72271,-4.92952 -2.30908,-1.20732 -4.91945,-1.71032 -7.52982,-1.71032 -6.32509,0 -11.14413,2.51512 -14.45727,7.64596 -2.509988,3.72232 -3.815163,9.65784 -3.815163,17.7062 0,9.95976 1.505976,16.8008 4.517923,20.52312 3.01195,3.72232 7.22864,5.53324 12.75057,5.53324 5.32102,0 9.33703,-1.50912 12.04768,-4.42664 2.71076,-3.11872 4.71877,-7.44464 5.9235,-13.07848 z m 56.72485,-53.1186 h 27.70992 v 31.48888 h 30.32017 v -31.48888 h 27.91059 v 89.93964 h -27.91059 v -36.41852 h -30.32017 v 36.41852 h -27.70992 z" />
  <path
     style="stroke-width:1.00497"
     id="path10"
     d="m 272.37971,153.42052 c 0,-14.68808 4.11629,-26.15696 12.24859,-34.3058 8.13218,-8.14896 19.5775,-12.27368 34.13528,-12.27368 14.95924,0 26.40467,4.02412 34.53685,12.07248 8.13231,8.04824 12.1482,19.3158 12.1482,33.8028 0,10.56336 -1.80722,19.11472 -5.32114,25.85516 -3.41353,6.63984 -8.73455,12.07236 -15.26042,15.69408 -6.72666,3.72232 -15.05975,5.63384 -24.99915,5.63384 -10.14019,0 -18.47317,-1.60972 -25.09943,-4.82892 -6.82706,-3.42064 -12.44938,-8.75256 -16.16409,-15.2918 -4.11629,-7.04224 -6.22469,-15.7948 -6.22469,-26.35816 z m 27.7098,0.1006 c 0,9.05436 1.70682,15.5936 5.01996,19.61772 3.31313,3.92352 7.93139,5.93564 13.7545,5.93564 5.92351,0 10.54177,-1.91152 13.8549,-5.83504 3.31314,-3.92352 4.91945,-10.86516 4.91945,-20.92552 0,-8.45076 -1.70671,-14.6882 -5.12024,-18.51112 -3.41352,-3.92352 -8.03178,-5.83504 -13.8549,-5.83504 -5.12035,-0.2012 -10.03979,2.01212 -13.45332,5.93564 -3.41353,3.92352 -5.12035,10.46276 -5.12035,19.61772 z m 93.77168,-0.1006 c 0,-14.68808 4.11641,-26.15696 12.24859,-34.3058 8.1323,-8.14896 19.57762,-12.27368 34.13528,-12.27368 14.95936,0 26.50507,4.02412 34.53698,12.07248 8.03178,8.04824 12.14807,19.3158 12.14807,33.8028 0,10.56336 -1.8071,19.11472 -5.32102,25.85516 -3.41353,6.63984 -8.73467,12.07236 -15.26054,15.69408 -6.72666,3.72232 -15.05963,5.63384 -24.99903,5.63384 -10.14019,0 -18.47328,-1.60972 -25.09955,-4.82892 -6.82706,-3.42064 -12.44938,-8.75256 -16.16409,-15.2918 -4.11629,-7.04224 -6.22469,-15.7948 -6.22469,-26.35816 z m 27.70992,0.1006 c 0,9.05436 1.7067,15.5936 5.01984,19.61772 3.31313,3.92352 7.93151,5.93564 13.7545,5.93564 5.92351,0 10.54189,-1.91152 13.85502,-5.83504 3.31314,-3.92352 4.91945,-10.86516 4.91945,-20.92552 0,-8.45076 -1.70671,-14.6882 -5.12035,-18.51112 -3.41353,-3.92352 -8.03179,-5.83504 -13.8549,-5.83504 -5.12024,-0.2012 -10.14019,2.01212 -13.45333,5.93564 -3.41353,3.92352 -5.12023,10.46276 -5.12023,19.61772 z" />
  <path
     style="stroke-width:1.00497"
     id="path12"
     d="m 484.01868,108.45076 h 27.7098 v 67.8068 H 555 v 22.13284 h -71.08184 v -89.93964 z" />
  <ellipse
     style="stroke-width:1.00497"
     id="ellipse14"
     ry="52.074139"
     rx="63.297661"
     cy="303.60294"
     cx="300.36249"
     class="st0"
     transform="matrix(0.79803255,-0.60261435,0.60104344,0.79921636,0,0)" />
  <defs
     id="defs17">
    <ellipse
       ry="51.799999"
       rx="63"
       cy="67.900002"
       cx="420.5"
       transform="rotate(-37.001,420.46,67.88)"
       id="SVGID_1_" />
  </defs>
  <clipPath
     id="SVGID_2_">
    <use
       height="100%"
       width="100%"
       y="0"
       x="0"
       id="use19"
       overflow="visible"
       xlink:href="#SVGID_1_" />
  </clipPath>
  <g
     transform="matrix(1.0039795,0,0,1.006036,0,-6.639839)"
     id="g78"
     clip-path="url(#SVGID_2_)"
     class="st1">
    <path
       id="path22"
       d="M 330.9,-14.2 H 510.7 V 150.9 H 330.9 Z"
       class="st0"
       transform="rotate(-37.001,420.82,68.353)" />
    <g
       id="Layer_2_1_">
      <defs
         id="defs25">
        <path
           d="M 330.9,-14.2 H 510.7 V 150.9 H 330.9 Z"
           transform="rotate(-37.001,420.82,68.353)"
           id="SVGID_3_" />
      </defs>
      <clipPath
         id="SVGID_4_">
        <use
           height="100%"
           width="100%"
           y="0"
           x="0"
           id="use27"
           overflow="visible"
           xlink:href="#SVGID_3_" />
      </clipPath>
      <g
         clip-path="url(#SVGID_4_)"
         class="st2"
         id="Layer_1-2">
        <ellipse
           id="ellipse30"
           ry="51.799999"
           rx="63"
           cy="67.900002"
           cx="420.5"
           class="st0"
           transform="rotate(-37.001,420.46,67.88)" />
        <defs
           id="defs33">
          <ellipse
             ry="51.799999"
             rx="63"
             cy="67.900002"
             cx="420.5"
             transform="rotate(-37.001,420.46,67.88)"
             id="SVGID_5_" />
        </defs>
        <clipPath
           id="SVGID_6_">
          <use
             height="100%"
             width="100%"
             y="0"
             x="0"
             id="use35"
             overflow="visible"
             xlink:href="#SVGID_5_" />
        </clipPath>
        <g
           id="g70"
           clip-path="url(#SVGID_6_)"
           class="st3">
          <path
             id="path38"
             d="M 357.8,17 H 483.7 V 120.7 H 357.8 Z"
             class="st0"
             transform="rotate(-37,420.799,68.802)" />
          <defs
             id="defs41">
            <path
               d="M 357.8,17 H 483.7 V 120.7 H 357.8 Z"
               transform="rotate(-37,420.799,68.802)"
               id="SVGID_7_" />
          </defs>
          <clipPath
             id="SVGID_8_">
            <use
               height="100%"
               width="100%"
               y="0"
               x="0"
               id="use43"
               overflow="visible"
               xlink:href="#SVGID_7_" />
          </clipPath>
          <g
             id="g48"
             clip-path="url(#SVGID_8_)"
             class="st4">
            <ellipse
               id="ellipse46"
               ry="51.799999"
               rx="63"
               cy="67.900002"
               cx="420.5"
               class="st5"
               transform="rotate(-37.001,420.46,67.88)" />
          </g>
          <path
             id="path50"
             clip-path="url(#SVGID_8_)"
             d="M 357.8,17 H 483.7 V 120.7 H 357.8 Z"
             class="st6"
             transform="rotate(-37,420.799,68.802)" />
          <ellipse
             id="ellipse52"
             ry="51.799999"
             rx="63"
             cy="67.900002"
             cx="420.5"
             class="st7"
             transform="rotate(-37.001,420.46,67.88)" />
          <path
             id="path54"
             d="M 357.8,17 H 483.7 V 120.7 H 357.8 Z"
             class="st0"
             transform="rotate(-37,420.799,68.802)" />
          <defs
             id="defs57">
            <path
               d="M 357.8,17 H 483.7 V 120.7 H 357.8 Z"
               transform="rotate(-37,420.799,68.802)"
               id="SVGID_9_" />
          </defs>
          <clipPath
             id="SVGID_10_">
            <use
               height="100%"
               width="100%"
               y="0"
               x="0"
               id="use59"
               overflow="visible"
               xlink:href="#SVGID_9_" />
          </clipPath>
          <g
             id="g64"
             clip-path="url(#SVGID_10_)"
             class="st8">
            <ellipse
               id="ellipse62"
               ry="51.799999"
               rx="63"
               cy="67.900002"
               cx="420.5"
               class="st5"
               transform="rotate(-37.001,420.46,67.88)" />
          </g>
          <path
             id="path66"
             clip-path="url(#SVGID_10_)"
             d="M 357.8,17 H 483.7 V 120.7 H 357.8 Z"
             class="st9"
             transform="rotate(-37,420.799,68.802)" />
          <path
             id="path68"
             d="M 330.9,-14.2 H 510.7 V 150.9 H 330.9 Z"
             class="st7"
             transform="rotate(-37.001,420.82,68.353)" />
        </g>
        <ellipse
           id="ellipse72"
           ry="51.799999"
           rx="63"
           cy="67.900002"
           cx="420.5"
           class="st7"
           transform="rotate(-37.001,420.46,67.88)" />
        <path
           id="path74"
           d="m 392.4,61.3 10,-7 12.3,17.5 c 2.1,2.8 3.7,5.8 4.9,9.1 0.7,2.5 0.5,5.2 -0.5,7.6 -1.3,3 -3.4,5.5 -6.2,7.3 -3.3,2.3 -6.1,3.6 -8.5,4 -2.3,0.4 -4.7,0 -6.9,-1 -2.4,-1.2 -4.5,-2.9 -6.1,-5.1 l 8.6,-8 c 0.7,1.1 1.6,2.1 2.6,2.9 0.7,0.5 1.5,0.8 2.4,0.8 0.7,0 1.4,-0.3 1.9,-0.7 1,-0.6 1.7,-1.8 1.6,-3 -0.3,-1.7 -1,-3.4 -2.1,-4.7 z m 30,11.1 9.1,-7.2 c 1,1.2 2.3,2.1 3.7,2.6 2,0.6 4.1,0.2 5.8,-1.1 1.2,-0.8 2.2,-1.9 2.6,-3.3 0.6,-1.8 -0.4,-3.8 -2.2,-4.4 -0.3,-0.1 -0.6,-0.2 -0.9,-0.2 -1.2,-0.1 -3.3,0.4 -6.4,1.7 -5.1,2.1 -9.1,2.9 -12.1,2.6 -2.9,-0.3 -5.6,-1.8 -7.2,-4.3 -1.2,-1.7 -1.8,-3.7 -1.9,-5.7 0,-2.3 0.6,-4.6 1.9,-6.5 1.9,-2.7 4.2,-5 7,-6.8 4.2,-2.9 7.9,-4.3 11.1,-4.3 3.2,0 6.2,1.5 9,4.6 l -9,7.1 c -1.8,-2.3 -5.2,-2.8 -7.5,-1 l -0.3,0.3 c -1,0.6 -1.7,1.5 -2.1,2.6 -0.3,0.8 -0.1,1.7 0.4,2.4 0.4,0.5 1,0.9 1.7,0.9 0.8,0.1 2.2,-0.3 4.2,-1.2 5,-2.1 8.8,-3.3 11.4,-3.7 2.2,-0.4 4.5,-0.2 6.6,0.7 1.9,0.8 3.5,2.2 4.6,3.9 1.4,2 2.2,4.4 2.3,6.9 0.1,2.6 -0.6,5.1 -2,7.3 -1.8,2.7 -4.1,5 -6.8,6.8 -5.5,3.8 -10,5.4 -13.6,4.8 -3.9,-0.6 -7.1,-2.6 -9.4,-5.5 z" />
      </g>
    </g>
  </g>
</svg>
