<?xml version="1.0" encoding="UTF-8" standalone="no"?>
<svg
   version="1.0"
   width="511.15424pt"
   height="432.66141pt"
   viewBox="0 0 511.15424 432.66141"
   preserveAspectRatio="xMidYMid meet"
   id="svg6"
   sodipodi:docname="telegram.svg"
   inkscape:version="1.1.2 (b8e25be833, 2022-02-05)"
   xmlns:inkscape="http://www.inkscape.org/namespaces/inkscape"
   xmlns:sodipodi="http://sodipodi.sourceforge.net/DTD/sodipodi-0.dtd"
   xmlns="http://www.w3.org/2000/svg"
   xmlns:svg="http://www.w3.org/2000/svg">
  <defs
     id="defs10" />
  <sodipodi:namedview
     id="namedview8"
     pagecolor="#ffffff"
     bordercolor="#666666"
     borderopacity="1.0"
     inkscape:pageshadow="2"
     inkscape:pageopacity="0.0"
     inkscape:pagecheckerboard="0"
     inkscape:document-units="pt"
     showgrid="false"
     fit-margin-top="0"
     fit-margin-left="0"
     fit-margin-right="0"
     fit-margin-bottom="0"
     inkscape:zoom="1.0532227"
     inkscape:cx="317.12193"
     inkscape:cy="285.78952"
     inkscape:window-width="1920"
     inkscape:window-height="1091"
     inkscape:window-x="-8"
     inkscape:window-y="-8"
     inkscape:window-maximized="1"
     inkscape:current-layer="g4" />
  <g
     transform="matrix(0.1,0,0,-0.1,-0.24575141,472.82432)"
     fill="#000000"
     stroke="none"
     id="g4">
    <path
       d="m 4665,4716 c -27,-8 -403,-149 -835,-314 C 3398,4237 2417,3863 1650,3570 883,3277 226,3024 191,3007 122,2974 51,2911 25,2861 0,2811 -5,2740 14,2682 c 21,-62 97,-137 176,-174 30,-14 265,-86 522,-159 l 467,-134 251,-720 c 166,-475 264,-739 286,-777 43,-70 111,-132 184,-167 48,-23 68,-26 155,-26 84,0 109,4 152,24 83,37 122,69 423,346 156,143 286,260 291,260 4,0 189,-146 411,-325 221,-178 425,-339 451,-357 109,-74 272,-93 379,-45 90,39 176,138 213,242 9,25 179,846 378,1825 328,1618 361,1789 361,1875 -1,162 -56,260 -180,321 -78,38 -186,48 -269,25 z m 143,-298 c 7,-7 12,-26 12,-43 0,-52 -720,-3588 -738,-3624 -46,-94 -70,-82 -420,199 -957,769 -1187,957 -1187,967 0,6 349,381 775,834 426,452 783,835 793,850 24,37 24,110 0,152 -20,35 -92,77 -131,77 -26,0 -141,-58 -1660,-834 l -972,-497 -450,128 c -247,70 -450,130 -450,133 0,3 289,115 643,249 353,135 847,323 1097,419 250,95 595,227 765,292 361,138 1823,695 1845,703 27,10 66,7 78,-5 z M 3163,3098 C 2963,2888 2126,1994 2116,1977 c -8,-12 -60,-209 -117,-437 -56,-228 -104,-420 -108,-427 -3,-6 -97,250 -209,569 -111,320 -201,582 -200,583 5,4 962,492 1323,675 198,101 364,187 370,191 5,5 14,9 19,9 6,0 -8,-19 -31,-42 z M 2513,1491 c 92,-74 167,-137 166,-140 -1,-9 -530,-493 -534,-489 -2,2 37,165 86,363 48,198 91,370 94,383 3,13 9,22 13,20 4,-2 83,-63 175,-137 z"
       id="path2" />
  </g>
</svg>
